999
dxfrw 0.6.3
  0
SECTION
  2
HEADER
  9
$ACADVER
  1
AC1021
  9
$DWGCODEPAGE
  3
ANSI_1252
  9
$INSBASE
 10
0
 20
0
 30
0
  9
$EXTMIN
 10
-440
 20
-218.1283361405006
 30
0
  9
$EXTMAX
 10
1321.250007714314
 20
533.5223371040622
 30
0
  9
$LIMMIN
 10
0
 20
0
  9
$LIMMAX
 10
420
 20
297
  9
$ORTHOMODE
 70
    0
  9
$REGENMODE
 70
    1
  9
$FILLMODE
 70
    1
  9
$QTEXTMODE
 70
    0
  9
$MIRRTEXT
 70
    0
  9
$LTSCALE
 40
1
  9
$ATTMODE
 70
    0
  9
$TEXTSIZE
 40
2.5
  9
$TRACEWID
 40
15.68
  9
$TEXTSTYLE
  7
STANDARD
  9
$CLAYER
  8
0
  9
$CELTYPE
  6
BYLAYER
  9
$CECOLOR
 62
  256
  9
$CELTSCALE
 40
1
  9
$DISPSILH
 70
    0
  9
$DIMSCALE
 40
2.5
  9
$DIMASZ
 40
0.25
  9
$DIMEXO
 40
0.0625
  9
$DIMDLI
 40
3.75
  9
$DIMRND
 40
0
  9
$DIMDLE
 40
0
  9
$DIMEXE
 40
0.125
  9
$DIMTP
 40
0
  9
$DIMTM
 40
0
  9
$DIMTXT
 40
0.25
  9
$DIMCEN
 40
2.5
  9
$DIMTSZ
 40
0
  9
$DIMTOL
 70
    0
  9
$DIMLIM
 70
    0
  9
$DIMTIH
 70
    0
  9
$DIMTOH
 70
    0
  9
$DIMSE1
 70
    0
  9
$DIMSE2
 70
    0
  9
$DIMTAD
 70
    1
  9
$DIMZIN
 70
    8
  9
$DIMBLK
  1

  9
$DIMASO
 70
    1
  9
$DIMSHO
 70
    1
  9
$DIMPOST
  1

  9
$DIMAPOST
  1

  9
$DIMALT
 70
    0
  9
$DIMALTD
 70
    3
  9
$DIMALTF
 40
0.03937
  9
$DIMLFAC
 40
1
  9
$DIMTOFL
 70
    1
  9
$DIMTVP
 40
0
  9
$DIMTIX
 70
    0
  9
$DIMSOXD
 70
    0
  9
$DIMSAH
 70
    0
  9
$DIMBLK1
  1

  9
$DIMBLK2
  1

  9
$DIMSTYLE
  2
STANDARD
  9
$DIMCLRD
 70
    0
  9
$DIMCLRE
 70
    0
  9
$DIMCLRT
 70
    0
  9
$DIMTFAC
 40
1
  9
$DIMGAP
 40
0.0625
  9
$DIMJUST
 70
    0
  9
$DIMSD1
 70
    0
  9
$DIMSD2
 70
    0
  9
$DIMTOLJ
 70
    0
  9
$DIMTZIN
 70
    8
  9
$DIMALTZ
 70
    0
  9
$DIMALTTZ
 70
    0
  9
$DIMUPT
 70
    0
  9
$DIMDEC
 70
    2
  9
$DIMTDEC
 70
    2
  9
$DIMALTU
 70
    2
  9
$DIMALTTD
 70
    3
  9
$DIMTXSTY
  7
STANDARD
  9
$DIMAUNIT
 70
    0
  9
$DIMADEC
 70
    0
  9
$DIMALTRND
 40
0
  9
$DIMAZIN
 70
    0
  9
$DIMDSEP
 70
   44
  9
$DIMATFIT
 70
    3
  9
$DIMFRAC
 70
    0
  9
$DIMLDRBLK
  1
STANDARD
  9
$DIMLUNIT
 70
    2
  9
$DIMLWD
 70
   -2
  9
$DIMLWE
 70
   -2
  9
$DIMTMOVE
 70
    0
  9
$DIMFXL
 40
1
  9
$DIMFXLON
 70
    0
  9
$DIMJOGANG
 40
0.7854
  9
$DIMTFILL
 70
    0
  9
$DIMTFILLCLR
 70
    0
  9
$DIMARCSYM
 70
    0
  9
$DIMLTYPE
  6

  9
$DIMLTEX1
  6

  9
$DIMLTEX2
  6

  9
$LUNITS
 70
    2
  9
$LUPREC
 70
    4
  9
$SKETCHINC
 40
1
  9
$FILLETRAD
 40
0
  9
$AUNITS
 70
    0
  9
$AUPREC
 70
    2
  9
$MENU
  1
.
  9
$ELEVATION
 40
0
  9
$PELEVATION
 40
0
  9
$THICKNESS
 40
0
  9
$LIMCHECK
 70
    0
  9
$CHAMFERA
 40
0
  9
$CHAMFERB
 40
0
  9
$CHAMFERC
 40
0
  9
$CHAMFERD
 40
0
  9
$SKPOLY
 70
    0
  9
$USRTIMER
 70
    1
  9
$ANGBASE
 50
0
  9
$ANGDIR
 70
    0
  9
$PDMODE
 70
   34
  9
$PDSIZE
 40
0
  9
$PLINEWID
 40
0
  9
$SPLFRAME
 70
    0
  9
$SPLINETYPE
 70
    2
  9
$SPLINESEGS
 70
    8
  9
$HANDSEED
  5
20000
  9
$SURFTAB1
 70
    6
  9
$SURFTAB2
 70
    6
  9
$SURFTYPE
 70
    6
  9
$SURFU
 70
    6
  9
$SURFV
 70
    6
  9
$UCSBASE
  2

  9
$UCSNAME
  2

  9
$UCSORG
 10
0
 20
0
 30
0
  9
$UCSXDIR
 10
1
 20
0
 30
0
  9
$UCSYDIR
 10
0
 20
1
 30
0
  9
$UCSORTHOREF
  2

  9
$UCSORTHOVIEW
 70
    0
  9
$UCSORGTOP
 10
0
 20
0
 30
0
  9
$UCSORGBOTTOM
 10
0
 20
0
 30
0
  9
$UCSORGLEFT
 10
0
 20
0
 30
0
  9
$UCSORGRIGHT
 10
0
 20
0
 30
0
  9
$UCSORGFRONT
 10
0
 20
0
 30
0
  9
$UCSORGBACK
 10
0
 20
0
 30
0
  9
$PUCSBASE
  2

  9
$PUCSNAME
  2

  9
$PUCSORG
 10
0
 20
0
 30
0
  9
$PUCSXDIR
 10
1
 20
0
 30
0
  9
$PUCSYDIR
 10
0
 20
1
 30
0
  9
$PUCSORTHOREF
  2

  9
$PUCSORTHOVIEW
 70
    0
  9
$PUCSORGTOP
 10
0
 20
0
 30
0
  9
$PUCSORGBOTTOM
 10
0
 20
0
 30
0
  9
$PUCSORGLEFT
 10
0
 20
0
 30
0
  9
$PUCSORGRIGHT
 10
0
 20
0
 30
0
  9
$PUCSORGFRONT
 10
0
 20
0
 30
0
  9
$PUCSORGBACK
 10
0
 20
0
 30
0
  9
$USERI1
 70
    0
  9
$USERI2
 70
    0
  9
$USERI3
 70
    0
  9
$USERI4
 70
    0
  9
$USERI5
 70
    0
  9
$USERR1
 40
0
  9
$USERR2
 40
0
  9
$USERR3
 40
0
  9
$USERR4
 40
0
  9
$USERR5
 40
0
  9
$WORLDVIEW
 70
    1
  9
$SHADEDGE
 70
    3
  9
$SHADEDIF
 70
   70
  9
$TILEMODE
 70
    1
  9
$MAXACTVP
 70
   64
  9
$PINSBASE
 10
0
 20
0
 30
0
  9
$PLIMCHECK
 70
    0
  9
$PEXTMIN
 10
0
 20
0
 30
0
  9
$PEXTMAX
 10
0
 20
0
 30
0
  9
$GRIDMODE
 70
    1
  9
$SNAPSTYLE
 70
    0
  9
$PLIMMIN
 10
0
 20
0
  9
$PLIMMAX
 10
21
 20
29.7
  9
$UNITMODE
 70
    0
  9
$VISRETAIN
 70
    1
  9
$PLINEGEN
 70
    0
  9
$PSLTSCALE
 70
    1
  9
$TREEDEPTH
 70
 3020
  9
$CMLSTYLE
  2
Standard
  9
$CMLJUST
 70
    0
  9
$CMLSCALE
 40
20
  9
$PROXYGRAPHICS
 70
    1
  9
$MEASUREMENT
 70
    1
  9
$CELWEIGHT
370
   -1
  9
$ENDCAPS
280
    0
  9
$JOINSTYLE
280
    0
  9
$LWDISPLAY
290
    0
  9
$INSUNITS
 70
    5
  9
$HYPERLINKBASE
  1

  9
$STYLESHEET
  1

  9
$XEDIT
290
    1
  9
$CEPSNTYPE
380
    0
  9
$PSTYLEMODE
290
    1
  9
$EXTNAMES
290
    1
  9
$PSVPSCALE
 40
1
  9
$OLESTARTUP
290
    0
  9
$SORTENTS
280
  127
  9
$INDEXCTL
280
    0
  9
$HIDETEXT
280
    1
  9
$XCLIPFRAME
290
    0
  9
$HALOGAP
280
    0
  9
$OBSCOLOR
 70
  257
  9
$OBSLTYPE
280
    0
  9
$INTERSECTIONDISPLAY
280
    0
  9
$INTERSECTIONCOLOR
 70
  257
  9
$DIMASSOC
280
    1
  9
$PROJECTNAME
  1

  9
$CAMERADISPLAY
290
    0
  9
$LENSLENGTH
 40
50
  9
$CAMERAHEIGHT
 40
0
  9
$STEPSPERSEC
 40
2
  9
$STEPSIZE
 40
50
  9
$3DDWFPREC
 40
2
  9
$PSOLWIDTH
 40
5
  9
$PSOLHEIGHT
 40
80
  9
$LOFTANG1
 40
1.570796326794897
  9
$LOFTANG2
 40
1.570796326794897
  9
$LOFTMAG1
 40
0
  9
$LOFTMAG2
 40
0
  9
$LOFTPARAM
 70
    7
  9
$LOFTNORMALS
280
    1
  9
$LATITUDE
 40
1
  9
$LONGITUDE
 40
1
  9
$NORTHDIRECTION
 40
0
  9
$TIMEZONE
 70
-8000
  9
$LIGHTGLYPHDISPLAY
280
    1
  9
$TILEMODELIGHTSYNCH
280
    1
  9
$SOLIDHIST
280
    1
  9
$SHOWHIST
280
    1
  9
$DWFFRAME
280
    2
  9
$DGNFRAME
280
    0
  9
$REALWORLDSCALE
290
    1
  9
$INTERFERECOLOR
 62
    1
  9
$CSHADOW
280
    0
  9
$SHADOWPLANELOCATION
 40
0
  0
ENDSEC
  0
SECTION
  2
CLASSES
  0
ENDSEC
  0
SECTION
  2
TABLES
  0
TABLE
  2
VPORT
  5
8
330
0
100
AcDbSymbolTable
 70
    1
  0
VPORT
  5
31
330
2
100
AcDbSymbolTableRecord
100
AcDbViewportTableRecord
  2
*ACTIVE
 70
    0
 10
0
 20
0
 11
1
 21
1
 12
-125.1603100556913
 22
-111.3151430141326
 13
0
 23
0
 14
10
 24
10
 15
10
 25
10
 16
0
 26
0
 36
1
 17
0
 27
0
 37
0
 40
70.88725525278093
 41
2.125
 42
50
 43
0
 44
0
 50
0
 51
0
 71
    0
 72
  100
 73
    1
 74
    3
 75
    0
 76
    1
 77
    0
 78
    0
281
    0
 65
    1
110
0
120
0
130
0
111
1
121
0
131
0
112
0
122
1
132
0
 79
    0
146
0
348
10020
 60
    7
 61
    5
292
1
282
    1
141
0
142
0
 63
  250
421
3358443
  0
ENDTAB
  0
TABLE
  2
LTYPE
  5
5
330
0
100
AcDbSymbolTable
 70
    4
  0
LTYPE
  5
14
330
5
100
AcDbSymbolTableRecord
100
AcDbLinetypeTableRecord
  2
ByBlock
 70
    0
  3

 72
   65
 73
    0
 40
0
  0
LTYPE
  5
15
330
5
100
AcDbSymbolTableRecord
100
AcDbLinetypeTableRecord
  2
ByLayer
 70
    0
  3

 72
   65
 73
    0
 40
0
  0
LTYPE
  5
16
330
5
100
AcDbSymbolTableRecord
100
AcDbLinetypeTableRecord
  2
Continuous
 70
    0
  3
Solid line
 72
   65
 73
    0
 40
0
  0
LTYPE
  5
32
330
5
100
AcDbSymbolTableRecord
100
AcDbLinetypeTableRecord
  2
DOT
 70
    0
  3
Dot . . . . . . . . . . . . . . . . . . . . . .
 72
   65
 73
    2
 40
6.35
 49
0
 74
    0
 49
-6.35
 74
    0
  0
LTYPE
  5
33
330
5
100
AcDbSymbolTableRecord
100
AcDbLinetypeTableRecord
  2
DOTTINY
 70
    0
  3
Dot (.15x) .....................................
 72
   65
 73
    2
 40
0.9525
 49
0
 74
    0
 49
-0.9525
 74
    0
  0
LTYPE
  5
34
330
5
100
AcDbSymbolTableRecord
100
AcDbLinetypeTableRecord
  2
DOT2
 70
    0
  3
Dot (.5x) .....................................
 72
   65
 73
    2
 40
3.175
 49
0
 74
    0
 49
-3.175
 74
    0
  0
LTYPE
  5
35
330
5
100
AcDbSymbolTableRecord
100
AcDbLinetypeTableRecord
  2
DOTX2
 70
    0
  3
Dot (2x) .  .  .  .  .  .  .  .  .  .  .  .  .
 72
   65
 73
    2
 40
12.7
 49
0
 74
    0
 49
-12.7
 74
    0
  0
LTYPE
  5
36
330
5
100
AcDbSymbolTableRecord
100
AcDbLinetypeTableRecord
  2
DASHED
 70
    0
  3
Dashed _ _ _ _ _ _ _ _ _ _ _ _ _ _ _ _ _
 72
   65
 73
    2
 40
19.05
 49
12.7
 74
    0
 49
-6.35
 74
    0
  0
LTYPE
  5
37
330
5
100
AcDbSymbolTableRecord
100
AcDbLinetypeTableRecord
  2
DASHEDTINY
 70
    0
  3
Dashed (.15x) _ _ _ _ _ _ _ _ _ _ _ _ _ _ _ _ _
 72
   65
 73
    2
 40
2.8575
 49
1.905
 74
    0
 49
-0.9525
 74
    0
  0
LTYPE
  5
38
330
5
100
AcDbSymbolTableRecord
100
AcDbLinetypeTableRecord
  2
DASHED2
 70
    0
  3
Dashed (.5x) _ _ _ _ _ _ _ _ _ _ _ _ _ _ _ _ _
 72
   65
 73
    2
 40
9.524999999999999
 49
6.35
 74
    0
 49
-3.175
 74
    0
  0
LTYPE
  5
39
330
5
100
AcDbSymbolTableRecord
100
AcDbLinetypeTableRecord
  2
DASHEDX2
 70
    0
  3
Dashed (2x) ____  ____  ____  ____  ____  ___
 72
   65
 73
    2
 40
38.09999999999999
 49
25.4
 74
    0
 49
-12.7
 74
    0
  0
LTYPE
  5
3A
330
5
100
AcDbSymbolTableRecord
100
AcDbLinetypeTableRecord
  2
DASHDOT
 70
    0
  3
Dash dot __ . __ . __ . __ . __ . __ . __ . __
 72
   65
 73
    4
 40
25.4
 49
12.7
 74
    0
 49
-6.35
 74
    0
 49
0
 74
    0
 49
-6.35
 74
    0
  0
LTYPE
  5
3B
330
5
100
AcDbSymbolTableRecord
100
AcDbLinetypeTableRecord
  2
DASHDOTTINY
 70
    0
  3
Dash dot (.15x) _._._._._._._._._._._._._._._.
 72
   65
 73
    4
 40
3.81
 49
1.905
 74
    0
 49
-0.9525
 74
    0
 49
0
 74
    0
 49
-0.9525
 74
    0
  0
LTYPE
  5
3C
330
5
100
AcDbSymbolTableRecord
100
AcDbLinetypeTableRecord
  2
DASHDOT2
 70
    0
  3
Dash dot (.5x) _._._._._._._._._._._._._._._.
 72
   65
 73
    4
 40
12.7
 49
6.35
 74
    0
 49
-3.175
 74
    0
 49
0
 74
    0
 49
-3.175
 74
    0
  0
LTYPE
  5
3D
330
5
100
AcDbSymbolTableRecord
100
AcDbLinetypeTableRecord
  2
DASHDOTX2
 70
    0
  3
Dash dot (2x) ____  .  ____  .  ____  .  ___
 72
   65
 73
    4
 40
50.8
 49
25.4
 74
    0
 49
-12.7
 74
    0
 49
0
 74
    0
 49
-12.7
 74
    0
  0
LTYPE
  5
3E
330
5
100
AcDbSymbolTableRecord
100
AcDbLinetypeTableRecord
  2
DIVIDE
 70
    0
  3
Divide ____ . . ____ . . ____ . . ____ . . ____
 72
   65
 73
    6
 40
31.75
 49
12.7
 74
    0
 49
-6.35
 74
    0
 49
0
 74
    0
 49
-6.35
 74
    0
 49
0
 74
    0
 49
-6.35
 74
    0
  0
LTYPE
  5
3F
330
5
100
AcDbSymbolTableRecord
100
AcDbLinetypeTableRecord
  2
DIVIDETINY
 70
    0
  3
Divide (.15x) __..__..__..__..__..__..__..__.._
 72
   65
 73
    6
 40
4.7625
 49
1.905
 74
    0
 49
-0.9525
 74
    0
 49
0
 74
    0
 49
-0.9525
 74
    0
 49
0
 74
    0
 49
-0.9525
 74
    0
  0
LTYPE
  5
40
330
5
100
AcDbSymbolTableRecord
100
AcDbLinetypeTableRecord
  2
DIVIDE2
 70
    0
  3
Divide (.5x) __..__..__..__..__..__..__..__.._
 72
   65
 73
    6
 40
15.875
 49
6.35
 74
    0
 49
-3.175
 74
    0
 49
0
 74
    0
 49
-3.175
 74
    0
 49
0
 74
    0
 49
-3.175
 74
    0
  0
LTYPE
  5
41
330
5
100
AcDbSymbolTableRecord
100
AcDbLinetypeTableRecord
  2
DIVIDEX2
 70
    0
  3
Divide (2x) ________  .  .  ________  .  .  _
 72
   65
 73
    6
 40
63.5
 49
25.4
 74
    0
 49
-12.7
 74
    0
 49
0
 74
    0
 49
-12.7
 74
    0
 49
0
 74
    0
 49
-12.7
 74
    0
  0
LTYPE
  5
42
330
5
100
AcDbSymbolTableRecord
100
AcDbLinetypeTableRecord
  2
BORDER
 70
    0
  3
Border __ __ . __ __ . __ __ . __ __ . __ __ .
 72
   65
 73
    6
 40
44.45
 49
12.7
 74
    0
 49
-6.35
 74
    0
 49
12.7
 74
    0
 49
-6.35
 74
    0
 49
0
 74
    0
 49
-6.35
 74
    0
  0
LTYPE
  5
43
330
5
100
AcDbSymbolTableRecord
100
AcDbLinetypeTableRecord
  2
BORDERTINY
 70
    0
  3
Border (.15x) __.__.__.__.__.__.__.__.__.__.__.
 72
   65
 73
    6
 40
6.6675
 49
1.905
 74
    0
 49
-0.9525
 74
    0
 49
1.905
 74
    0
 49
-0.9525
 74
    0
 49
0
 74
    0
 49
-0.9525
 74
    0
  0
LTYPE
  5
44
330
5
100
AcDbSymbolTableRecord
100
AcDbLinetypeTableRecord
  2
BORDER2
 70
    0
  3
Border (.5x) __.__.__.__.__.__.__.__.__.__.__.
 72
   65
 73
    6
 40
22.225
 49
6.35
 74
    0
 49
-3.175
 74
    0
 49
6.35
 74
    0
 49
-3.175
 74
    0
 49
0
 74
    0
 49
-3.175
 74
    0
  0
LTYPE
  5
45
330
5
100
AcDbSymbolTableRecord
100
AcDbLinetypeTableRecord
  2
BORDERX2
 70
    0
  3
Border (2x) ____  ____  .  ____  ____  .  ___
 72
   65
 73
    6
 40
88.89999999999999
 49
25.4
 74
    0
 49
-12.7
 74
    0
 49
25.4
 74
    0
 49
-12.7
 74
    0
 49
0
 74
    0
 49
-12.7
 74
    0
  0
LTYPE
  5
46
330
5
100
AcDbSymbolTableRecord
100
AcDbLinetypeTableRecord
  2
CENTER
 70
    0
  3
Center ____ _ ____ _ ____ _ ____ _ ____ _ ____
 72
   65
 73
    4
 40
50.8
 49
31.75
 74
    0
 49
-6.35
 74
    0
 49
6.35
 74
    0
 49
-6.35
 74
    0
  0
LTYPE
  5
47
330
5
100
AcDbSymbolTableRecord
100
AcDbLinetypeTableRecord
  2
CENTERTINY
 70
    0
  3
Center (.15x) ___ _ ___ _ ___ _ ___ _ ___ _ ___
 72
   65
 73
    4
 40
7.62
 49
4.7625
 74
    0
 49
-0.9525
 74
    0
 49
0.9525
 74
    0
 49
-0.9525
 74
    0
  0
LTYPE
  5
48
330
5
100
AcDbSymbolTableRecord
100
AcDbLinetypeTableRecord
  2
CENTER2
 70
    0
  3
Center (.5x) ___ _ ___ _ ___ _ ___ _ ___ _ ___
 72
   65
 73
    4
 40
28.575
 49
19.05
 74
    0
 49
-3.175
 74
    0
 49
3.175
 74
    0
 49
-3.175
 74
    0
  0
LTYPE
  5
49
330
5
100
AcDbSymbolTableRecord
100
AcDbLinetypeTableRecord
  2
CENTERX2
 70
    0
  3
Center (2x) ________  __  ________  __  _____
 72
   65
 73
    4
 40
101.6
 49
63.5
 74
    0
 49
-12.7
 74
    0
 49
12.7
 74
    0
 49
-12.7
 74
    0
  0
ENDTAB
  0
TABLE
  2
LAYER
  5
2
330
0
100
AcDbSymbolTable
 70
    1
  0
LAYER
  5
10
330
2
100
AcDbSymbolTableRecord
100
AcDbLayerTableRecord
  2
0
 70
    0
 62
    7
  6
CONTINUOUS
370
    0
390
F
  0
ENDTAB
  0
TABLE
  2
STYLE
  5
3
330
0
100
AcDbSymbolTable
 70
    3
  0
STYLE
  5
4A
330
2
100
AcDbSymbolTableRecord
100
AcDbTextStyleTableRecord
  2
STANDARD
 70
    0
 40
0
 41
1
 50
0
 71
    0
 42
1
  3
STANDARD
  4

  0
ENDTAB
  0
TABLE
  2
VIEW
  5
6
330
0
100
AcDbSymbolTable
 70
    0
  0
ENDTAB
  0
TABLE
  2
UCS
  5
7
330
0
100
AcDbSymbolTable
 70
    0
  0
ENDTAB
  0
TABLE
  2
APPID
  5
9
330
0
100
AcDbSymbolTable
 70
    1
  0
APPID
  5
12
330
9
100
AcDbSymbolTableRecord
100
AcDbRegAppTableRecord
  2
ACAD
 70
    0
  0
APPID
  5
4B
330
9
100
AcDbSymbolTableRecord
100
AcDbRegAppTableRecord
  2
LibreCad
 70
    0
  0
ENDTAB
  0
TABLE
  2
DIMSTYLE
  5
A
330
0
100
AcDbSymbolTable
 70
    1
100
AcDbDimStyleTable
 71
    1
  0
DIMSTYLE
105
4C
330
A
100
AcDbSymbolTableRecord
100
AcDbDimStyleTableRecord
  2
Standard
 70
    0
 40
2.5
 41
0.25
 42
0.0625
 43
0.38
 44
0.125
 45
0
 46
0
 47
0
 48
0
 49
1
140
0.25
141
0.09
142
0
143
25.4
144
1
145
0
146
1
147
0.0625
148
0
 71
    0
 72
    0
 73
    0
 74
    1
 75
    0
 76
    0
 77
    0
 78
    8
 79
    0
170
    0
171
    2
172
    0
173
    0
174
    0
175
    0
176
    0
177
    0
178
    0
179
    0
271
    2
272
    4
273
    2
274
    2
275
    0
276
    0
277
    2
278
   44
279
    0
280
    0
281
    0
282
    0
283
    1
284
    0
285
    0
286
    0
288
    0
289
    3
340
STANDARD
341

371
   -2
372
   -2
  0
ENDTAB
  0
TABLE
  2
BLOCK_RECORD
  5
1
330
0
100
AcDbSymbolTable
 70
    2
  0
BLOCK_RECORD
  5
1F
330
1
100
AcDbSymbolTableRecord
100
AcDbBlockTableRecord
  2
*Model_Space
 70
    0
280
    1
281
    0
  0
BLOCK_RECORD
  5
1E
330
1
100
AcDbSymbolTableRecord
100
AcDbBlockTableRecord
  2
*Paper_Space
 70
    0
280
    1
281
    0
  0
ENDTAB
  0
ENDSEC
  0
SECTION
  2
BLOCKS
  0
BLOCK
  5
20
330
1F
100
AcDbEntity
  8
0
100
AcDbBlockBegin
  2
*Model_Space
 70
    0
 10
0
 20
0
 30
0
  3
*Model_Space
  1

  0
ENDBLK
  5
21
330
1F
100
AcDbEntity
  8
0
100
AcDbBlockEnd
  0
BLOCK
  5
1C
330
1B
100
AcDbEntity
  8
0
100
AcDbBlockBegin
  2
*Paper_Space
 70
    0
 10
0
 20
0
 30
0
  3
*Paper_Space
  1

  0
ENDBLK
  5
1D
330
1F
100
AcDbEntity
  8
0
100
AcDbBlockEnd
  0
ENDSEC
  0
SECTION
  2
ENTITIES
  0
LINE
  5
4D
100
AcDbEntity
  8
0
  6
ByLayer
 62
  256
370
   -1
100
AcDbLine
 10
900
 20
100
 11
1000
 21
390
  0
ARC
  5
4E
100
AcDbEntity
  8
0
  6
ByLayer
 62
  256
370
   -1
100
AcDbCircle
 10
793.7499999999999
 20
115
 40
343.7500000000001
100
AcDbArc
 50
306.869897645844
 51
53.13010235415597
  0
ARC
  5
4F
100
AcDbEntity
  8
0
  6
ByLayer
 62
  256
370
   -1
100
AcDbCircle
 10
1000
 20
115
 40
275
100
AcDbArc
 50
270
 51
90
  0
LINE
  5
50
100
AcDbEntity
  8
0
  6
ByLayer
 62
  256
370
   -1
100
AcDbLine
 10
900
 20
100
 11
1000
 21
-160
  0
LINE
  5
51
100
AcDbEntity
  8
0
  6
DOTTINY
 62
  256
370
  211
100
AcDbLine
 10
230
 20
100
 11
900
 21
100
  0
LINE
  5
52
100
AcDbEntity
  8
0
  6
DOTTINY
 62
  256
370
  211
100
AcDbLine
 10
-440
 20
100
 11
180
 21
100
  0
LWPOLYLINE
  5
53
100
AcDbEntity
  8
0
  6
ByLayer
 62
  256
370
   -1
100
AcDbPolyline
 90
    5
 70
    0
 43
0
 10
156.6096984771767
 20
292.6495877036571
 10
204.0975188948878
 20
-104.5215428080849
 10
303.3903015228233
 20
-92.64958770365713
 10
255.9024811051122
 20
304.5215428080849
 10
156.6096984771767
 20
292.6495877036571
  0
ARC
  5
54
100
AcDbEntity
  8
0
  6
ByLayer
 62
  256
370
   -1
100
AcDbCircle
 10
283.693665538203
 20
282.666335927208
 40
127.4754878398196
100
AcDbArc
 50
108.1281424740202
 51
175.5082775259798
  0
LINE
  5
55
100
AcDbEntity
  8
0
  6
ByLayer
 62
  256
370
   -1
100
AcDbLine
 10
244.0305260006845
 20
403.8143254360204
 11
255.9024811051122
 21
304.5215428080849
  0
ARC
  5
56
100
AcDbEntity
  8
0
  6
ByLayer
 62
  256
370
   -1
100
AcDbCircle
 10
325.2455084037002
 20
-64.8584032705663
 40
127.4754878398196
100
AcDbArc
 50
198.1281424740202
 51
265.5082775259798
  0
LINE
  5
57
100
AcDbEntity
  8
0
  6
ByLayer
 62
  256
370
   -1
100
AcDbLine
 10
303.3903015228233
 20
-92.64958770365713
 11
315.262256627251
 21
-191.9423703315926
  0
LWPOLYLINE
  5
58
100
AcDbEntity
  8
0
  6
ByLayer
 62
  256
370
   -1
100
AcDbPolyline
 90
    4
 70
    1
 43
0
 10
242.6382681033471
 20
398.6122472025351
 10
230.7231341879949
 20
397.1876125900037
 10
231.9103296984377
 20
387.2583343272102
 10
243.8254636137899
 20
388.6829689397415
  0
LWPOLYLINE
  5
59
100
AcDbEntity
  8
0
  6
ByLayer
 62
  256
370
   -1
100
AcDbPolyline
 90
    4
 70
    1
 43
0
 10
310.5026798827488
 20
-177.4046115905352
 10
298.5875459673966
 20
-178.8292462030665
 10
299.7747414778393
 20
-188.75852446586
 10
311.6898753931916
 20
-187.3338898533287
  0
LWPOLYLINE
  5
5A
100
AcDbEntity
  8
0
  6
ByLayer
 62
  256
370
   -1
100
AcDbPolyline
 90
    4
 70
    1
 43
0
 10
178.8426460236494
 20
275.1654221989556
 10
238.4183156004107
 20
282.2885952616122
 10
239.6055111108535
 20
272.3593169988187
 10
180.0298415340922
 20
265.236143936162
  0
LWPOLYLINE
  5
5B
100
AcDbEntity
  8
0
  6
ByLayer
 62
  256
370
   -1
100
AcDbPolyline
 90
    4
 70
    1
 43
0
 10
190.6714371031514
 20
260.4657724889287
 10
230.3885501543256
 20
265.2145545306998
 10
238.5801991763807
 20
196.7025345174243
 10
198.8630861252065
 20
191.9537524756532
  0
LWPOLYLINE
  5
5C
100
AcDbEntity
  8
0
  6
ByLayer
 62
  256
370
   -1
100
AcDbPolyline
 90
    4
 70
    1
 43
0
 10
206.8388928436347
 20
268.4415718143575
 10
212.7964598013109
 20
269.1538891206232
 10
213.5087771075765
 20
263.1963221629471
 10
207.5512101499004
 20
262.4840048566814
  0
LWPOLYLINE
  5
5D
100
AcDbEntity
  8
0
  6
ByLayer
 62
  256
370
   -1
100
AcDbPolyline
 90
    4
 70
    1
 43
0
 10
189.6461251686787
 20
184.8089900075343
 10
249.22179474544
 20
191.9321630701909
 10
250.4089902558827
 20
182.0028848073974
 10
190.8333206791214
 20
174.8797117447407
  0
LWPOLYLINE
  5
5E
100
AcDbEntity
  8
0
  6
ByLayer
 62
  256
370
   -1
100
AcDbPolyline
 90
    4
 70
    1
 43
0
 10
215.7428591719556
 20
193.9719848434059
 10
221.7004261296317
 20
194.6843021496716
 10
222.4127434358974
 20
188.7267351919954
 10
216.4551764782212
 20
188.0144178857298
  0
LWPOLYLINE
  5
5F
100
AcDbEntity
  8
0
  6
ByLayer
 62
  256
370
   -1
100
AcDbPolyline
 90
    4
 70
    1
 43
0
 10
235.6877733193917
 20
397.7812103452251
 10
237.6736289719504
 20
398.0186494473137
 10
238.8608244823932
 20
388.0893711845201
 10
236.8749688298344
 20
387.8519320824316
  0
LWPOLYLINE
  5
60
100
AcDbEntity
  8
0
  6
ByLayer
 62
  256
370
   -1
100
AcDbPolyline
 90
    4
 70
    1
 43
0
 10
236.1626515235688
 20
393.8094990401077
 10
238.1485071761275
 20
394.0469381421963
 10
238.385946278216
 20
392.0610824896376
 10
236.4000906256573
 20
391.823643387549
  0
LWPOLYLINE
  5
61
100
AcDbEntity
  8
0
  6
ByLayer
 62
  256
370
   -1
100
AcDbPolyline
 90
    4
 70
    1
 43
0
 10
302.5592572725139
 20
-178.3543679988894
 10
305.538040751352
 20
-177.9982093457565
 10
306.7252362617948
 20
-187.9274876085501
 10
303.7464527829567
 20
-188.2836462616829
  0
LWPOLYLINE
  5
62
100
AcDbEntity
  8
0
  6
ByLayer
 62
  256
370
   -1
100
AcDbPolyline
 90
    4
 70
    1
 43
0
 10
303.0341354766911
 20
-182.3260793040068
 10
306.0129189555291
 20
-181.9699206508739
 10
306.2503580576177
 20
-183.9557763034327
 10
303.2715745787796
 20
-184.3119349565655
  0
LWPOLYLINE
  5
63
100
AcDbEntity
  8
0
  6
ByLayer
 62
  256
370
   -1
100
AcDbPolyline
 90
    4
 70
    1
 43
0
 10
222.2184683587346
 20
106.1194579266455
 10
236.1194579266455
 20
107.7815316412654
 10
237.7815316412654
 20
93.88054207335446
 10
223.8805420733545
 20
92.21846835873457
  0
LWPOLYLINE
  5
64
100
AcDbEntity
  8
0
  6
ByLayer
 62
  256
370
   -1
100
AcDbPolyline
 90
    4
 70
    1
 43
0
 10
227.1831074901313
 20
106.7130556818669
 10
231.1548187952488
 20
107.187933886044
 10
232.8168925098687
 20
93.28694431813307
 10
228.8451812047512
 20
92.81206611395596
  0
LWPOLYLINE
  5
65
100
AcDbEntity
  8
0
  6
ByLayer
 62
  256
370
   -1
100
AcDbPolyline
 90
    4
 70
    1
 43
0
 10
227.7767052453527
 20
101.7484165504702
 10
231.7484165504702
 20
102.2232947546473
 10
232.2232947546473
 20
98.25158344952985
 10
228.2515834495298
 20
97.77670524535273
  0
LWPOLYLINE
  5
66
100
AcDbEntity
  8
0
  6
ByLayer
 62
  256
370
   -1
100
AcDbPolyline
 90
    4
 70
    1
 43
0
 10
181.1091121962218
 20
281.4791478097645
 10
234.727214815307
 20
287.8900035661555
 10
235.0833734684398
 20
284.9112200873175
 10
181.4652708493546
 20
278.5003643309265
  0
LWPOLYLINE
  5
67
100
AcDbEntity
  8
0
  6
ByLayer
 62
  256
370
   -1
100
AcDbPolyline
 90
    4
 70
    1
 43
0
 10
205.2955386800591
 20
281.3496335559892
 10
211.2531056377352
 20
282.0619508622548
 10
211.6092642908681
 20
279.0831673834168
 10
205.6516973331919
 20
278.3708500771511
  0
LWPOLYLINE
  5
68
100
AcDbEntity
  8
0
  6
ByLayer
 62
  256
370
   -1
100
AcDbPolyline
 90
    4
 70
    1
 43
0
 10
217.642371988664
 20
178.0851396229362
 10
223.5999389463401
 20
178.7974569292019
 10
223.956097599473
 20
175.8186734503638
 10
217.9985306417968
 20
175.1063561440982
  0
LWPOLYLINE
  5
69
100
AcDbEntity
  8
0
  6
ByLayer
 62
  256
370
   -1
100
AcDbPolyline
 90
    4
 70
    1
 43
0
 10
194.1682628110923
 20
172.2570869190355
 10
247.7863654301775
 20
178.6679426754265
 10
248.1425240833103
 20
175.6891591965884
 10
194.5244214642252
 20
169.2783034401974
  0
LWPOLYLINE
  5
6A
100
AcDbEntity
  8
0
  6
ByLayer
 62
  256
370
   -1
100
AcDbPolyline
 90
    4
 70
    1
 43
0
 10
209.7097292951616
 20
17.00418736632327
 10
269.2853988719228
 20
24.12736042897992
 10
270.4725943823656
 20
14.19808216618637
 10
210.8969248056043
 20
7.074909103529716
  0
LWPOLYLINE
  5
6B
100
AcDbEntity
  8
0
  6
ByLayer
 62
  256
370
   -1
100
AcDbPolyline
 90
    4
 70
    1
 43
0
 10
221.5385203746636
 20
2.304537656296362
 10
261.2556334258377
 20
7.053319698067468
 10
269.4472824478929
 20
-61.45870031520803
 10
229.7301693967187
 20
-66.20748235697914
  0
LWPOLYLINE
  5
6C
100
AcDbEntity
  8
0
  6
ByLayer
 62
  256
370
   -1
100
AcDbPolyline
 90
    4
 70
    1
 43
0
 10
237.7059761151469
 20
10.28033698172521
 10
243.663543072823
 20
10.99265428799088
 10
244.3758603790887
 20
5.035087330314748
 10
238.4182934214126
 20
4.322770024049082
  0
LWPOLYLINE
  5
6D
100
AcDbEntity
  8
0
  6
ByLayer
 62
  256
370
   -1
100
AcDbPolyline
 90
    4
 70
    1
 43
0
 10
220.5132084401908
 20
-73.35224482509804
 10
280.0888780169522
 20
-66.22907176244138
 10
281.2760735273949
 20
-76.15835002523494
 10
221.7004039506336
 20
-83.2815230878916
  0
LWPOLYLINE
  5
6E
100
AcDbEntity
  8
0
  6
ByLayer
 62
  256
370
   -1
100
AcDbPolyline
 90
    4
 70
    1
 43
0
 10
246.6099424434677
 20
-64.18924998922641
 10
252.5675094011439
 20
-63.47693268296075
 10
253.2798267074095
 20
-69.43449964063689
 10
247.3222597497334
 20
-70.14681694690255
  0
LWPOLYLINE
  5
6F
100
AcDbEntity
  8
0
  6
ByLayer
 62
  256
370
   -1
100
AcDbPolyline
 90
    4
 70
    1
 43
0
 10
211.976195467734
 20
23.31791297713223
 10
265.5942980868192
 20
29.72876873352322
 10
265.950456739952
 20
26.74998525468516
 10
212.3323541208668
 20
20.33912949829417
  0
LWPOLYLINE
  5
70
100
AcDbEntity
  8
0
  6
ByLayer
 62
  256
370
   -1
100
AcDbPolyline
 90
    4
 70
    1
 43
0
 10
236.1626219515713
 20
23.18839872335683
 10
242.1201889092474
 20
23.90071602962249
 10
242.4763475623803
 20
20.92193255078443
 10
236.5187806047041
 20
20.20961524451876
  0
LWPOLYLINE
  5
71
100
AcDbEntity
  8
0
  6
ByLayer
 62
  256
370
   -1
100
AcDbPolyline
 90
    4
 70
    1
 43
0
 10
248.5094552601762
 20
-80.07609520969609
 10
254.4670222178523
 20
-79.36377790343043
 10
254.8231808709851
 20
-82.3425613822685
 10
248.865613913309
 20
-83.05487868853416
  0
LWPOLYLINE
  5
72
100
AcDbEntity
  8
0
  6
ByLayer
 62
  256
370
   -1
100
AcDbPolyline
 90
    4
 70
    1
 43
0
 10
225.0353460826045
 20
-85.90414791359683
 10
278.6534487016897
 20
-79.49329215720583
 10
279.0096073548225
 20
-82.4720756360439
 10
225.3915047357373
 20
-88.88293139243488
  0
LINE
  5
73
100
AcDbEntity
  8
0
  6
ByLayer
 62
  256
370
   -1
100
AcDbLine
 10
146.6804202143832
 20
291.4623921932143
 11
153.8035932770398
 21
231.8867226164531
  0
LINE
  5
74
100
AcDbEntity
  8
0
  6
ByLayer
 62
  256
370
   -1
100
AcDbLine
 10
153.8035932770398
 20
231.8867226164531
 11
163.3767128867005
 21
236.0527016057339
  0
LINE
  5
75
100
AcDbEntity
  8
0
  6
ByLayer
 62
  256
370
   -1
100
AcDbLine
 10
146.6804202143832
 20
291.4623921932143
 11
156.9658571303096
 21
289.6708042248191
  0
LINE
  5
76
100
AcDbEntity
  8
0
  6
ByLayer
 62
  256
370
   -1
100
AcDbLine
 10
154.1597519301727
 20
228.907939137615
 11
161.2829249928293
 21
169.3322695608537
  0
LINE
  5
77
100
AcDbEntity
  8
0
  6
ByLayer
 62
  256
370
   -1
100
AcDbLine
 10
161.2829249928293
 20
169.3322695608537
 11
170.85604460249
 21
173.4982485501345
  0
LINE
  5
78
100
AcDbEntity
  8
0
  6
ByLayer
 62
  256
370
   -1
100
AcDbLine
 10
154.1597519301727
 20
228.907939137615
 11
164.4451888460991
 21
227.1163511692197
  0
LINE
  5
79
100
AcDbEntity
  8
0
  6
ByLayer
 62
  256
370
   -1
100
AcDbLine
 10
155.718217198972
 20
232.7199184143092
 11
156.216839313358
 21
228.5496215439359
  0
LINE
  5
7A
100
AcDbEntity
  8
0
  6
ByLayer
 62
  256
370
   -1
100
AcDbLine
 10
179.5657358536481
 20
16.421384313833
 11
186.6889089163047
 21
-43.1542852629283
  0
LINE
  5
7B
100
AcDbEntity
  8
0
  6
ByLayer
 62
  256
370
   -1
100
AcDbLine
 10
186.6889089163047
 20
-43.1542852629283
 11
196.2620285259655
 21
-38.98830627364746
  0
LINE
  5
7C
100
AcDbEntity
  8
0
  6
ByLayer
 62
  256
370
   -1
100
AcDbLine
 10
179.5657358536481
 20
16.421384313833
 11
189.8511727695744
 21
14.62979634543771
  0
LINE
  5
7D
100
AcDbEntity
  8
0
  6
ByLayer
 62
  256
370
   -1
100
AcDbLine
 10
187.0450675694376
 20
-46.13306874176637
 11
194.1682406320942
 21
-105.7087383185277
  0
LINE
  5
7E
100
AcDbEntity
  8
0
  6
ByLayer
 62
  256
370
   -1
100
AcDbLine
 10
194.1682406320942
 20
-105.7087383185277
 11
203.7413602417549
 21
-101.5427593292468
  0
LINE
  5
7F
100
AcDbEntity
  8
0
  6
ByLayer
 62
  256
370
   -1
100
AcDbLine
 10
187.0450675694376
 20
-46.13306874176637
 11
197.3305044853639
 21
-47.92465671016166
  0
LINE
  5
80
100
AcDbEntity
  8
0
  6
ByLayer
 62
  256
370
   -1
100
AcDbLine
 10
188.6035328382369
 20
-42.32108946507211
 11
189.1021549526228
 21
-46.49138633544541
  0
LINE
  5
81
100
AcDbEntity
  8
0
  6
ByLayer
 62
  256
370
   -1
100
AcDbLine
 10
298.7170750071707
 20
30.66773043914632
 11
305.8402480698273
 21
-28.90793913761499
  0
LINE
  5
82
100
AcDbEntity
  8
0
  6
ByLayer
 62
  256
370
   -1
100
AcDbLine
 10
305.8402480698273
 20
-28.90793913761499
 11
295.554811153901
 21
-27.11635116921969
  0
LINE
  5
83
100
AcDbEntity
  8
0
  6
ByLayer
 62
  256
370
   -1
100
AcDbLine
 10
298.7170750071707
 20
30.66773043914632
 11
289.14395539751
 21
26.50175144986548
  0
LINE
  5
84
100
AcDbEntity
  8
0
  6
ByLayer
 62
  256
370
   -1
100
AcDbLine
 10
306.1964067229601
 20
-31.88672261645305
 11
313.3195797856168
 21
-91.46239219321436
  0
LINE
  5
85
100
AcDbEntity
  8
0
  6
ByLayer
 62
  256
370
   -1
100
AcDbLine
 10
313.3195797856168
 20
-91.46239219321436
 11
303.0341428696905
 21
-89.67080422481907
  0
LINE
  5
86
100
AcDbEntity
  8
0
  6
ByLayer
 62
  256
370
   -1
100
AcDbLine
 10
306.1964067229601
 20
-31.88672261645305
 11
296.6232871132995
 21
-36.05270160573389
  0
LINE
  5
87
100
AcDbEntity
  8
0
  6
ByLayer
 62
  256
370
   -1
100
AcDbLine
 10
303.7831606866421
 20
-28.5496215439359
 11
304.281782801028
 21
-32.71991841430921
  0
LINE
  5
88
100
AcDbEntity
  8
0
  6
ByLayer
 62
  256
370
   -1
100
AcDbLine
 10
265.8317593679058
 20
305.7087383185277
 11
272.9549324305625
 21
246.1330687417664
  0
LINE
  5
89
100
AcDbEntity
  8
0
  6
ByLayer
 62
  256
370
   -1
100
AcDbLine
 10
272.9549324305625
 20
246.1330687417664
 11
262.669495514636
 21
247.9246567101617
  0
LINE
  5
8A
100
AcDbEntity
  8
0
  6
ByLayer
 62
  256
370
   -1
100
AcDbLine
 10
265.8317593679058
 20
305.7087383185277
 11
256.2586397582451
 21
301.5427593292468
  0
LINE
  5
8B
100
AcDbEntity
  8
0
  6
ByLayer
 62
  256
370
   -1
100
AcDbLine
 10
273.3110910836953
 20
243.1542852629283
 11
280.4342641463519
 21
183.578615686167
  0
LINE
  5
8C
100
AcDbEntity
  8
0
  6
ByLayer
 62
  256
370
   -1
100
AcDbLine
 10
280.4342641463519
 20
183.578615686167
 11
270.1488272304255
 21
185.3702036545623
  0
LINE
  5
8D
100
AcDbEntity
  8
0
  6
ByLayer
 62
  256
370
   -1
100
AcDbLine
 10
273.3110910836953
 20
243.1542852629283
 11
263.7379714740346
 21
238.9883062736475
  0
LINE
  5
8E
100
AcDbEntity
  8
0
  6
ByLayer
 62
  256
370
   -1
100
AcDbLine
 10
270.8978450473771
 20
246.4913863354454
 11
271.3964671617631
 21
242.3210894650721
  0
LINE
  5
8F
100
AcDbEntity
  8
0
  6
ByLayer
 62
    4
370
   -1
100
AcDbLine
 10
322.8387628466187
 20
250.0831906414215
 11
336.2109080896963
 21
222.475479189763
  0
LINE
  5
90
100
AcDbEntity
  8
0
  6
ByLayer
 62
    4
370
   -1
100
AcDbLine
 10
329.0877350270397
 20
282.0511487665243
 11
346.5719005317412
 21
304.284096312997
  0
LINE
  5
91
100
AcDbEntity
  8
0
  6
ByLayer
 62
    4
370
   -1
100
AcDbLine
 10
346.5719005317412
 20
304.284096312997
 11
352.3891585329108
 21
255.6306328253086
  0
LINE
  5
92
100
AcDbEntity
  8
0
  6
ByLayer
 62
    4
370
   -1
100
AcDbLine
 10
322.6013237445302
 20
252.0690462939803
 11
329.0877350270397
 21
282.0511487665243
  0
LWPOLYLINE
  5
93
100
AcDbEntity
  8
0
  6
ByLayer
 62
    4
370
   -1
100
AcDbPolyline
 90
    4
 70
    1
 43
0
 10
263.0256541677689
 20
244.9458732313236
 10
353.3820863591902
 20
255.7493523763528
 10
353.6195254612787
 20
253.7634967237941
 10
263.2630932698574
 20
242.9600175787649
  0
LINE
  5
94
100
AcDbEntity
  8
0
  6
ByLayer
 62
    4
370
   -1
100
AcDbLine
 10
369.0962237289613
 20
-52.56552868961833
 11
391.3291712754339
 21
-70.04969419431988
  0
LINE
  5
95
100
AcDbEntity
  8
0
  6
ByLayer
 62
    4
370
   -1
100
AcDbLine
 10
391.3291712754339
 20
-70.04969419431988
 11
385.5119132742643
 21
-21.39623070663148
  0
LINE
  5
96
100
AcDbEntity
  8
0
  6
ByLayer
 62
    4
370
   -1
100
AcDbLine
 10
355.7240784858836
 20
-24.95781723795981
 11
369.0962237289613
 21
-52.56552868961833
  0
LINE
  5
97
100
AcDbEntity
  8
0
  6
ByLayer
 62
    4
370
   -1
100
AcDbLine
 10
361.9730506663046
 20
7.01014088714297
 11
379.4572161710062
 21
29.24308843361562
  0
LINE
  5
98
100
AcDbEntity
  8
0
  6
ByLayer
 62
    4
370
   -1
100
AcDbLine
 10
379.4572161710062
 20
29.24308843361562
 11
385.2744741721758
 21
-19.41037505407277
  0
LINE
  5
99
100
AcDbEntity
  8
0
  6
ByLayer
 62
    4
370
   -1
100
AcDbLine
 10
355.4866393837951
 20
-22.9719615854011
 11
361.9730506663046
 21
7.01014088714297
  0
LWPOLYLINE
  5
9A
100
AcDbEntity
  8
0
  6
ByLayer
 62
    4
370
   -1
100
AcDbPolyline
 90
    4
 70
    1
 43
0
 10
295.9109698070338
 20
-30.09513464805776
 10
386.2674019984551
 20
-19.2916555030285
 10
386.5048411005437
 20
-21.27751115558721
 10
296.1484089091223
 20
-32.08099030061647
  0
LINE
  5
9B
100
AcDbEntity
  8
0
  6
ByLayer
 62
    4
370
   -1
100
AcDbLine
 10
336.2109080896963
 20
222.475479189763
 11
358.443855636169
 21
204.9913136850615
  0
LINE
  5
9C
100
AcDbEntity
  8
0
  6
ByLayer
 62
    4
370
   -1
100
AcDbLine
 10
358.443855636169
 20
204.9913136850615
 11
352.6265976349994
 21
253.6447771727499
  0
LINE
  5
9D
100
AcDbEntity
  8
0
  6
ByLayer
 62
    4
370
   -1
100
AcDbLine
 10
483.4124527908612
 20
170.5841963226864
 11
508.4515055374708
 21
213.8628959051889
  0
LINE
  5
9E
100
AcDbEntity
  8
0
  6
ByLayer
 62
    4
370
   -1
100
AcDbLine
 10
508.4515055374708
 20
213.8628959051889
 11
517.8303500699686
 21
135.4215976291199
  0
LINE
  5
9F
100
AcDbEntity
  8
0
  6
ByLayer
 62
    4
370
   -1
100
AcDbLine
 10
478.2319565698388
 20
129.6798877610694
 11
483.4124527908612
 21
170.5841963226864
  0
LINE
  5
A0
100
AcDbEntity
  8
0
  6
ByLayer
 62
    4
370
   -1
100
AcDbLine
 10
492.9100168744034
 20
91.14997022033798
 11
527.4466337045552
 21
54.99444370049211
  0
LINE
  5
A1
100
AcDbEntity
  8
0
  6
ByLayer
 62
    4
370
   -1
100
AcDbLine
 10
527.4466337045552
 20
54.99444370049211
 11
518.0677891720572
 21
133.4357419765612
  0
LINE
  5
A2
100
AcDbEntity
  8
0
  6
ByLayer
 62
    4
370
   -1
100
AcDbLine
 10
478.2319565698388
 20
129.6798877610694
 11
492.9100168744034
 21
91.14997022033798
  0
LWPOLYLINE
  5
A3
100
AcDbEntity
  8
0
  6
ByLayer
 62
    4
370
   -1
100
AcDbPolyline
 90
    4
 70
    1
 43
0
 10
279.5276717629235
 20
106.9289053784932
 10
518.823277896248
 20
135.5403171801642
 10
519.0607169983366
 20
133.5544615276054
 10
279.765110865012
 20
104.9430497259345
  0
LWPOLYLINE
  5
A4
100
AcDbEntity
  8
0
  6
ByLayer
 62
  256
370
   -3
100
AcDbPolyline
 90
    4
 70
    1
 43
0
 10
186.3543470616335
 20
102.8384819153309
 10
202.2411922821032
 20
104.7379947320393
 10
204.1407050988116
 20
88.85114951156966
 10
188.253859878342
 20
86.95163669486122
  0
LINE
  5
A5
100
AcDbEntity
  8
0
  6
ByLayer
 62
    4
370
   -1
100
AcDbLine
 10
237.2722289600367
 20
392.8663138912906
 11
209.0005267379404
 21
465.5623306560702
  0
LINE
  5
A6
100
AcDbEntity
  8
0
  6
ByLayer
 62
    4
370
   -1
100
AcDbLine
 10
209.0005267379404
 20
465.5623306560702
 11
160.8467865167343
 21
479.0240282722181
  0
LINE
  5
A7
100
AcDbEntity
  8
0
  6
ByLayer
 62
    4
370
   -1
100
AcDbLine
 10
209.0005267379404
 20
465.5623306560702
 11
235.4068037113801
 21
508.0206459359065
  0
ARC
  5
A8
100
AcDbEntity
  8
0
  6
ByLayer
 62
    4
370
   -1
100
AcDbCircle
 10
209.0005267379404
 20
465.5623306560702
 40
50
100
AcDbArc
 50
58.12110764584402
 51
164.381312354156
  0
ARC
  5
A9
100
AcDbEntity
  8
0
  6
ByLayer
 62
    4
370
   -1
100
AcDbCircle
 10
198.1267951140572
 20
493.5223371040623
 40
40
100
AcDbArc
 50
21.25121
 51
201.25121
  0
LINE
  5
AA
100
AcDbEntity
  8
0
  6
ByLayer
 62
    4
370
   -1
100
AcDbLine
 10
304.2225104096951
 20
-183.2493240618356
 11
262.9653685049702
 21
-114.7084731636057
  0
LINE
  5
AB
100
AcDbEntity
  8
0
  6
ByLayer
 62
    4
370
   -1
100
AcDbLine
 10
262.9653685049702
 20
-114.7084731636057
 11
281.7643657398133
 21
-68.37708312440698
  0
LINE
  5
AC
100
AcDbEntity
  8
0
  6
ByLayer
 62
    4
370
   -1
100
AcDbLine
 10
262.9653685049702
 20
-114.7084731636057
 11
213.2235148415834
 21
-109.6342250291319
  0
ARC
  5
AD
100
AcDbEntity
  8
0
  6
ByLayer
 62
    4
370
   -1
100
AcDbCircle
 10
262.9653685049702
 20
-114.7084731636056
 40
50
100
AcDbArc
 50
67.915107645844
 51
174.175312354156
  0
ARC
  5
AE
100
AcDbEntity
  8
0
  6
ByLayer
 62
    4
370
   -1
100
AcDbCircle
 10
247.4939402906983
 20
-89.00565407676946
 40
40
100
AcDbArc
 50
31.04520999999999
 51
211.04521
  0
CIRCLE
  5
AF
100
AcDbEntity
  8
0
  6
ByLayer
 62
  256
370
   -1
100
AcDbCircle
 10
240
 20
390
 40
36.05551275463989
  0
CIRCLE
  5
B0
100
AcDbEntity
  8
0
  6
ByLayer
 62
  256
370
   -1
100
AcDbCircle
 10
305
 20
-183
 40
35.12833614050059
  0
LINE
  5
B1
100
AcDbEntity
  8
0
  6
ByLayer
 62
    5
370
   -1
100
AcDbLine
 10
530
 20
-80
 11
532
 21
-93
  0
LINE
  5
B2
100
AcDbEntity
  8
0
  6
ByLayer
 62
    5
370
   -1
100
AcDbLine
 10
532
 20
-93
 11
519
 21
-58
  0
LINE
  5
B3
100
AcDbEntity
  8
0
  6
ByLayer
 62
    5
370
   -1
100
AcDbLine
 10
519
 20
-58
 11
541
 21
-86
  0
LINE
  5
B4
100
AcDbEntity
  8
0
  6
ByLayer
 62
    5
370
   -1
100
AcDbLine
 10
541
 20
-86
 11
530
 21
-80
  0
LINE
  5
B5
100
AcDbEntity
  8
0
  6
ByLayer
 62
    5
370
   -1
100
AcDbLine
 10
530
 20
-80
 11
564
 21
-135
  0
MTEXT
  5
B6
100
AcDbEntity
  8
0
  6
ByLayer
 62
    5
370
   -1
100
AcDbMText
 10
581.875
 20
-165
 30
0
 40
15
 41
139.5833333333347
 71
    5
 72
    1
  1
Wind direction\P
  7
STANDARD
210
0
220
0
230
1
 50
0
 73
    2
 44
1
  0
MTEXT
  5
B7
100
AcDbEntity
  8
0
  6
ByLayer
 62
    4
370
   -1
100
AcDbMText
 10
661.87500544717
 20
482.5
 30
0
 40
15
 41
765.0000045342838
 71
    5
 72
    1
  1
The wing Strucuture will be pulled into position by the tail and direction \Pchutes to face the wind.\PThe turbine units will also be be pulled independently by its tails
  7

210
0
220
0
230
1
 50
0
 73
    2
 44
1
  0
ENDSEC
  0
SECTION
  2
OBJECTS
  0
DICTIONARY
  5
C
330
0
100
AcDbDictionary
281
    1
  3
ACAD_GROUP
350
D
  0
DICTIONARY
  5
D
330
C
100
AcDbDictionary
281
    1
  0
ENDSEC
  0
EOF
