999
dxfrw 0.6.3
  0
SECTION
  2
HEADER
  9
$ACADVER
  1
AC1021
  9
$DWGCODEPAGE
  3
ANSI_1252
  9
$INSBASE
 10
0
 20
0
 30
0
  9
$EXTMIN
 10
-70.00000000000003
 20
-190
 30
0
  9
$EXTMAX
 10
607.0000061714475
 20
680
 30
0
  9
$LIMMIN
 10
0
 20
0
  9
$LIMMAX
 10
420
 20
297
  9
$ORTHOMODE
 70
    0
  9
$REGENMODE
 70
    1
  9
$FILLMODE
 70
    1
  9
$QTEXTMODE
 70
    0
  9
$MIRRTEXT
 70
    0
  9
$LTSCALE
 40
1
  9
$ATTMODE
 70
    0
  9
$TEXTSIZE
 40
2.5
  9
$TRACEWID
 40
15.68
  9
$TEXTSTYLE
  7
STANDARD
  9
$CLAYER
  8
0
  9
$CELTYPE
  6
BYLAYER
  9
$CECOLOR
 62
  256
  9
$CELTSCALE
 40
1
  9
$DISPSILH
 70
    0
  9
$DIMSCALE
 40
2.5
  9
$DIMASZ
 40
0.25
  9
$DIMEXO
 40
0.0625
  9
$DIMDLI
 40
3.75
  9
$DIMRND
 40
0
  9
$DIMDLE
 40
0
  9
$DIMEXE
 40
0.125
  9
$DIMTP
 40
0
  9
$DIMTM
 40
0
  9
$DIMTXT
 40
0.25
  9
$DIMCEN
 40
2.5
  9
$DIMTSZ
 40
0
  9
$DIMTOL
 70
    0
  9
$DIMLIM
 70
    0
  9
$DIMTIH
 70
    0
  9
$DIMTOH
 70
    0
  9
$DIMSE1
 70
    0
  9
$DIMSE2
 70
    0
  9
$DIMTAD
 70
    1
  9
$DIMZIN
 70
    8
  9
$DIMBLK
  1

  9
$DIMASO
 70
    1
  9
$DIMSHO
 70
    1
  9
$DIMPOST
  1

  9
$DIMAPOST
  1

  9
$DIMALT
 70
    0
  9
$DIMALTD
 70
    3
  9
$DIMALTF
 40
0.03937
  9
$DIMLFAC
 40
1
  9
$DIMTOFL
 70
    1
  9
$DIMTVP
 40
0
  9
$DIMTIX
 70
    0
  9
$DIMSOXD
 70
    0
  9
$DIMSAH
 70
    0
  9
$DIMBLK1
  1

  9
$DIMBLK2
  1

  9
$DIMSTYLE
  2
STANDARD
  9
$DIMCLRD
 70
    0
  9
$DIMCLRE
 70
    0
  9
$DIMCLRT
 70
    0
  9
$DIMTFAC
 40
1
  9
$DIMGAP
 40
0.0625
  9
$DIMJUST
 70
    0
  9
$DIMSD1
 70
    0
  9
$DIMSD2
 70
    0
  9
$DIMTOLJ
 70
    0
  9
$DIMTZIN
 70
    8
  9
$DIMALTZ
 70
    0
  9
$DIMALTTZ
 70
    0
  9
$DIMUPT
 70
    0
  9
$DIMDEC
 70
    2
  9
$DIMTDEC
 70
    2
  9
$DIMALTU
 70
    2
  9
$DIMALTTD
 70
    3
  9
$DIMTXSTY
  7
STANDARD
  9
$DIMAUNIT
 70
    0
  9
$DIMADEC
 70
    0
  9
$DIMALTRND
 40
0
  9
$DIMAZIN
 70
    0
  9
$DIMDSEP
 70
   44
  9
$DIMATFIT
 70
    3
  9
$DIMFRAC
 70
    0
  9
$DIMLDRBLK
  1
STANDARD
  9
$DIMLUNIT
 70
    2
  9
$DIMLWD
 70
   -2
  9
$DIMLWE
 70
   -2
  9
$DIMTMOVE
 70
    0
  9
$DIMFXL
 40
1
  9
$DIMFXLON
 70
    0
  9
$DIMJOGANG
 40
0.7854
  9
$DIMTFILL
 70
    0
  9
$DIMTFILLCLR
 70
    0
  9
$DIMARCSYM
 70
    0
  9
$DIMLTYPE
  6

  9
$DIMLTEX1
  6

  9
$DIMLTEX2
  6

  9
$LUNITS
 70
    2
  9
$LUPREC
 70
    4
  9
$SKETCHINC
 40
1
  9
$FILLETRAD
 40
0
  9
$AUNITS
 70
    0
  9
$AUPREC
 70
    2
  9
$MENU
  1
.
  9
$ELEVATION
 40
0
  9
$PELEVATION
 40
0
  9
$THICKNESS
 40
0
  9
$LIMCHECK
 70
    0
  9
$CHAMFERA
 40
0
  9
$CHAMFERB
 40
0
  9
$CHAMFERC
 40
0
  9
$CHAMFERD
 40
0
  9
$SKPOLY
 70
    0
  9
$USRTIMER
 70
    1
  9
$ANGBASE
 50
0
  9
$ANGDIR
 70
    0
  9
$PDMODE
 70
   34
  9
$PDSIZE
 40
0
  9
$PLINEWID
 40
0
  9
$SPLFRAME
 70
    0
  9
$SPLINETYPE
 70
    2
  9
$SPLINESEGS
 70
    8
  9
$HANDSEED
  5
20000
  9
$SURFTAB1
 70
    6
  9
$SURFTAB2
 70
    6
  9
$SURFTYPE
 70
    6
  9
$SURFU
 70
    6
  9
$SURFV
 70
    6
  9
$UCSBASE
  2

  9
$UCSNAME
  2

  9
$UCSORG
 10
0
 20
0
 30
0
  9
$UCSXDIR
 10
1
 20
0
 30
0
  9
$UCSYDIR
 10
0
 20
1
 30
0
  9
$UCSORTHOREF
  2

  9
$UCSORTHOVIEW
 70
    0
  9
$UCSORGTOP
 10
0
 20
0
 30
0
  9
$UCSORGBOTTOM
 10
0
 20
0
 30
0
  9
$UCSORGLEFT
 10
0
 20
0
 30
0
  9
$UCSORGRIGHT
 10
0
 20
0
 30
0
  9
$UCSORGFRONT
 10
0
 20
0
 30
0
  9
$UCSORGBACK
 10
0
 20
0
 30
0
  9
$PUCSBASE
  2

  9
$PUCSNAME
  2

  9
$PUCSORG
 10
0
 20
0
 30
0
  9
$PUCSXDIR
 10
1
 20
0
 30
0
  9
$PUCSYDIR
 10
0
 20
1
 30
0
  9
$PUCSORTHOREF
  2

  9
$PUCSORTHOVIEW
 70
    0
  9
$PUCSORGTOP
 10
0
 20
0
 30
0
  9
$PUCSORGBOTTOM
 10
0
 20
0
 30
0
  9
$PUCSORGLEFT
 10
0
 20
0
 30
0
  9
$PUCSORGRIGHT
 10
0
 20
0
 30
0
  9
$PUCSORGFRONT
 10
0
 20
0
 30
0
  9
$PUCSORGBACK
 10
0
 20
0
 30
0
  9
$USERI1
 70
    0
  9
$USERI2
 70
    0
  9
$USERI3
 70
    0
  9
$USERI4
 70
    0
  9
$USERI5
 70
    0
  9
$USERR1
 40
0
  9
$USERR2
 40
0
  9
$USERR3
 40
0
  9
$USERR4
 40
0
  9
$USERR5
 40
0
  9
$WORLDVIEW
 70
    1
  9
$SHADEDGE
 70
    3
  9
$SHADEDIF
 70
   70
  9
$TILEMODE
 70
    1
  9
$MAXACTVP
 70
   64
  9
$PINSBASE
 10
0
 20
0
 30
0
  9
$PLIMCHECK
 70
    0
  9
$PEXTMIN
 10
0
 20
0
 30
0
  9
$PEXTMAX
 10
0
 20
0
 30
0
  9
$GRIDMODE
 70
    1
  9
$SNAPSTYLE
 70
    0
  9
$PLIMMIN
 10
0
 20
0
  9
$PLIMMAX
 10
2.1e-008
 20
2.97e-008
  9
$UNITMODE
 70
    0
  9
$VISRETAIN
 70
    1
  9
$PLINEGEN
 70
    0
  9
$PSLTSCALE
 70
    1
  9
$TREEDEPTH
 70
 3020
  9
$CMLSTYLE
  2
Standard
  9
$CMLJUST
 70
    0
  9
$CMLSCALE
 40
20
  9
$PROXYGRAPHICS
 70
    1
  9
$MEASUREMENT
 70
    1
  9
$CELWEIGHT
370
   -1
  9
$ENDCAPS
280
    0
  9
$JOINSTYLE
280
    0
  9
$LWDISPLAY
290
    0
  9
$INSUNITS
 70
    5
  9
$HYPERLINKBASE
  1

  9
$STYLESHEET
  1

  9
$XEDIT
290
    1
  9
$CEPSNTYPE
380
    0
  9
$PSTYLEMODE
290
    1
  9
$EXTNAMES
290
    1
  9
$PSVPSCALE
 40
1
  9
$OLESTARTUP
290
    0
  9
$SORTENTS
280
  127
  9
$INDEXCTL
280
    0
  9
$HIDETEXT
280
    1
  9
$XCLIPFRAME
290
    0
  9
$HALOGAP
280
    0
  9
$OBSCOLOR
 70
  257
  9
$OBSLTYPE
280
    0
  9
$INTERSECTIONDISPLAY
280
    0
  9
$INTERSECTIONCOLOR
 70
  257
  9
$DIMASSOC
280
    1
  9
$PROJECTNAME
  1

  9
$CAMERADISPLAY
290
    0
  9
$LENSLENGTH
 40
50
  9
$CAMERAHEIGHT
 40
0
  9
$STEPSPERSEC
 40
2
  9
$STEPSIZE
 40
50
  9
$3DDWFPREC
 40
2
  9
$PSOLWIDTH
 40
5
  9
$PSOLHEIGHT
 40
80
  9
$LOFTANG1
 40
1.570796326794897
  9
$LOFTANG2
 40
1.570796326794897
  9
$LOFTMAG1
 40
0
  9
$LOFTMAG2
 40
0
  9
$LOFTPARAM
 70
    7
  9
$LOFTNORMALS
280
    1
  9
$LATITUDE
 40
1
  9
$LONGITUDE
 40
1
  9
$NORTHDIRECTION
 40
0
  9
$TIMEZONE
 70
-8000
  9
$LIGHTGLYPHDISPLAY
280
    1
  9
$TILEMODELIGHTSYNCH
280
    1
  9
$SOLIDHIST
280
    1
  9
$SHOWHIST
280
    1
  9
$DWFFRAME
280
    2
  9
$DGNFRAME
280
    0
  9
$REALWORLDSCALE
290
    1
  9
$INTERFERECOLOR
 62
    1
  9
$CSHADOW
280
    0
  9
$SHADOWPLANELOCATION
 40
0
  0
ENDSEC
  0
SECTION
  2
CLASSES
  0
ENDSEC
  0
SECTION
  2
TABLES
  0
TABLE
  2
VPORT
  5
8
330
0
100
AcDbSymbolTable
 70
    1
  0
VPORT
  5
31
330
2
100
AcDbSymbolTableRecord
100
AcDbViewportTableRecord
  2
*ACTIVE
 70
    0
 10
0
 20
0
 11
1
 21
1
 12
-268.1979400245308
 22
-44.88668452293403
 13
0
 23
0
 14
10
 24
10
 15
10
 25
10
 16
0
 26
0
 36
1
 17
0
 27
0
 37
0
 40
71.81869523669444
 41
2.125
 42
50
 43
0
 44
0
 50
0
 51
0
 71
    0
 72
  100
 73
    1
 74
    3
 75
    0
 76
    1
 77
    0
 78
    0
281
    0
 65
    1
110
0
120
0
130
0
111
1
121
0
131
0
112
0
122
1
132
0
 79
    0
146
0
348
10020
 60
    7
 61
    5
292
1
282
    1
141
0
142
0
 63
  250
421
3358443
  0
ENDTAB
  0
TABLE
  2
LTYPE
  5
5
330
0
100
AcDbSymbolTable
 70
    4
  0
LTYPE
  5
14
330
5
100
AcDbSymbolTableRecord
100
AcDbLinetypeTableRecord
  2
ByBlock
 70
    0
  3

 72
   65
 73
    0
 40
0
  0
LTYPE
  5
15
330
5
100
AcDbSymbolTableRecord
100
AcDbLinetypeTableRecord
  2
ByLayer
 70
    0
  3

 72
   65
 73
    0
 40
0
  0
LTYPE
  5
16
330
5
100
AcDbSymbolTableRecord
100
AcDbLinetypeTableRecord
  2
Continuous
 70
    0
  3
Solid line
 72
   65
 73
    0
 40
0
  0
LTYPE
  5
32
330
5
100
AcDbSymbolTableRecord
100
AcDbLinetypeTableRecord
  2
DOT
 70
    0
  3
Dot . . . . . . . . . . . . . . . . . . . . . .
 72
   65
 73
    2
 40
6.35
 49
0
 74
    0
 49
-6.35
 74
    0
  0
LTYPE
  5
33
330
5
100
AcDbSymbolTableRecord
100
AcDbLinetypeTableRecord
  2
DOTTINY
 70
    0
  3
Dot (.15x) .....................................
 72
   65
 73
    2
 40
0.9525
 49
0
 74
    0
 49
-0.9525
 74
    0
  0
LTYPE
  5
34
330
5
100
AcDbSymbolTableRecord
100
AcDbLinetypeTableRecord
  2
DOT2
 70
    0
  3
Dot (.5x) .....................................
 72
   65
 73
    2
 40
3.175
 49
0
 74
    0
 49
-3.175
 74
    0
  0
LTYPE
  5
35
330
5
100
AcDbSymbolTableRecord
100
AcDbLinetypeTableRecord
  2
DOTX2
 70
    0
  3
Dot (2x) .  .  .  .  .  .  .  .  .  .  .  .  .
 72
   65
 73
    2
 40
12.7
 49
0
 74
    0
 49
-12.7
 74
    0
  0
LTYPE
  5
36
330
5
100
AcDbSymbolTableRecord
100
AcDbLinetypeTableRecord
  2
DASHED
 70
    0
  3
Dashed _ _ _ _ _ _ _ _ _ _ _ _ _ _ _ _ _
 72
   65
 73
    2
 40
19.05
 49
12.7
 74
    0
 49
-6.35
 74
    0
  0
LTYPE
  5
37
330
5
100
AcDbSymbolTableRecord
100
AcDbLinetypeTableRecord
  2
DASHEDTINY
 70
    0
  3
Dashed (.15x) _ _ _ _ _ _ _ _ _ _ _ _ _ _ _ _ _
 72
   65
 73
    2
 40
2.8575
 49
1.905
 74
    0
 49
-0.9525
 74
    0
  0
LTYPE
  5
38
330
5
100
AcDbSymbolTableRecord
100
AcDbLinetypeTableRecord
  2
DASHED2
 70
    0
  3
Dashed (.5x) _ _ _ _ _ _ _ _ _ _ _ _ _ _ _ _ _
 72
   65
 73
    2
 40
9.524999999999999
 49
6.35
 74
    0
 49
-3.175
 74
    0
  0
LTYPE
  5
39
330
5
100
AcDbSymbolTableRecord
100
AcDbLinetypeTableRecord
  2
DASHEDX2
 70
    0
  3
Dashed (2x) ____  ____  ____  ____  ____  ___
 72
   65
 73
    2
 40
38.09999999999999
 49
25.4
 74
    0
 49
-12.7
 74
    0
  0
LTYPE
  5
3A
330
5
100
AcDbSymbolTableRecord
100
AcDbLinetypeTableRecord
  2
DASHDOT
 70
    0
  3
Dash dot __ . __ . __ . __ . __ . __ . __ . __
 72
   65
 73
    4
 40
25.4
 49
12.7
 74
    0
 49
-6.35
 74
    0
 49
0
 74
    0
 49
-6.35
 74
    0
  0
LTYPE
  5
3B
330
5
100
AcDbSymbolTableRecord
100
AcDbLinetypeTableRecord
  2
DASHDOTTINY
 70
    0
  3
Dash dot (.15x) _._._._._._._._._._._._._._._.
 72
   65
 73
    4
 40
3.81
 49
1.905
 74
    0
 49
-0.9525
 74
    0
 49
0
 74
    0
 49
-0.9525
 74
    0
  0
LTYPE
  5
3C
330
5
100
AcDbSymbolTableRecord
100
AcDbLinetypeTableRecord
  2
DASHDOT2
 70
    0
  3
Dash dot (.5x) _._._._._._._._._._._._._._._.
 72
   65
 73
    4
 40
12.7
 49
6.35
 74
    0
 49
-3.175
 74
    0
 49
0
 74
    0
 49
-3.175
 74
    0
  0
LTYPE
  5
3D
330
5
100
AcDbSymbolTableRecord
100
AcDbLinetypeTableRecord
  2
DASHDOTX2
 70
    0
  3
Dash dot (2x) ____  .  ____  .  ____  .  ___
 72
   65
 73
    4
 40
50.8
 49
25.4
 74
    0
 49
-12.7
 74
    0
 49
0
 74
    0
 49
-12.7
 74
    0
  0
LTYPE
  5
3E
330
5
100
AcDbSymbolTableRecord
100
AcDbLinetypeTableRecord
  2
DIVIDE
 70
    0
  3
Divide ____ . . ____ . . ____ . . ____ . . ____
 72
   65
 73
    6
 40
31.75
 49
12.7
 74
    0
 49
-6.35
 74
    0
 49
0
 74
    0
 49
-6.35
 74
    0
 49
0
 74
    0
 49
-6.35
 74
    0
  0
LTYPE
  5
3F
330
5
100
AcDbSymbolTableRecord
100
AcDbLinetypeTableRecord
  2
DIVIDETINY
 70
    0
  3
Divide (.15x) __..__..__..__..__..__..__..__.._
 72
   65
 73
    6
 40
4.7625
 49
1.905
 74
    0
 49
-0.9525
 74
    0
 49
0
 74
    0
 49
-0.9525
 74
    0
 49
0
 74
    0
 49
-0.9525
 74
    0
  0
LTYPE
  5
40
330
5
100
AcDbSymbolTableRecord
100
AcDbLinetypeTableRecord
  2
DIVIDE2
 70
    0
  3
Divide (.5x) __..__..__..__..__..__..__..__.._
 72
   65
 73
    6
 40
15.875
 49
6.35
 74
    0
 49
-3.175
 74
    0
 49
0
 74
    0
 49
-3.175
 74
    0
 49
0
 74
    0
 49
-3.175
 74
    0
  0
LTYPE
  5
41
330
5
100
AcDbSymbolTableRecord
100
AcDbLinetypeTableRecord
  2
DIVIDEX2
 70
    0
  3
Divide (2x) ________  .  .  ________  .  .  _
 72
   65
 73
    6
 40
63.5
 49
25.4
 74
    0
 49
-12.7
 74
    0
 49
0
 74
    0
 49
-12.7
 74
    0
 49
0
 74
    0
 49
-12.7
 74
    0
  0
LTYPE
  5
42
330
5
100
AcDbSymbolTableRecord
100
AcDbLinetypeTableRecord
  2
BORDER
 70
    0
  3
Border __ __ . __ __ . __ __ . __ __ . __ __ .
 72
   65
 73
    6
 40
44.45
 49
12.7
 74
    0
 49
-6.35
 74
    0
 49
12.7
 74
    0
 49
-6.35
 74
    0
 49
0
 74
    0
 49
-6.35
 74
    0
  0
LTYPE
  5
43
330
5
100
AcDbSymbolTableRecord
100
AcDbLinetypeTableRecord
  2
BORDERTINY
 70
    0
  3
Border (.15x) __.__.__.__.__.__.__.__.__.__.__.
 72
   65
 73
    6
 40
6.6675
 49
1.905
 74
    0
 49
-0.9525
 74
    0
 49
1.905
 74
    0
 49
-0.9525
 74
    0
 49
0
 74
    0
 49
-0.9525
 74
    0
  0
LTYPE
  5
44
330
5
100
AcDbSymbolTableRecord
100
AcDbLinetypeTableRecord
  2
BORDER2
 70
    0
  3
Border (.5x) __.__.__.__.__.__.__.__.__.__.__.
 72
   65
 73
    6
 40
22.225
 49
6.35
 74
    0
 49
-3.175
 74
    0
 49
6.35
 74
    0
 49
-3.175
 74
    0
 49
0
 74
    0
 49
-3.175
 74
    0
  0
LTYPE
  5
45
330
5
100
AcDbSymbolTableRecord
100
AcDbLinetypeTableRecord
  2
BORDERX2
 70
    0
  3
Border (2x) ____  ____  .  ____  ____  .  ___
 72
   65
 73
    6
 40
88.89999999999999
 49
25.4
 74
    0
 49
-12.7
 74
    0
 49
25.4
 74
    0
 49
-12.7
 74
    0
 49
0
 74
    0
 49
-12.7
 74
    0
  0
LTYPE
  5
46
330
5
100
AcDbSymbolTableRecord
100
AcDbLinetypeTableRecord
  2
CENTER
 70
    0
  3
Center ____ _ ____ _ ____ _ ____ _ ____ _ ____
 72
   65
 73
    4
 40
50.8
 49
31.75
 74
    0
 49
-6.35
 74
    0
 49
6.35
 74
    0
 49
-6.35
 74
    0
  0
LTYPE
  5
47
330
5
100
AcDbSymbolTableRecord
100
AcDbLinetypeTableRecord
  2
CENTERTINY
 70
    0
  3
Center (.15x) ___ _ ___ _ ___ _ ___ _ ___ _ ___
 72
   65
 73
    4
 40
7.62
 49
4.7625
 74
    0
 49
-0.9525
 74
    0
 49
0.9525
 74
    0
 49
-0.9525
 74
    0
  0
LTYPE
  5
48
330
5
100
AcDbSymbolTableRecord
100
AcDbLinetypeTableRecord
  2
CENTER2
 70
    0
  3
Center (.5x) ___ _ ___ _ ___ _ ___ _ ___ _ ___
 72
   65
 73
    4
 40
28.575
 49
19.05
 74
    0
 49
-3.175
 74
    0
 49
3.175
 74
    0
 49
-3.175
 74
    0
  0
LTYPE
  5
49
330
5
100
AcDbSymbolTableRecord
100
AcDbLinetypeTableRecord
  2
CENTERX2
 70
    0
  3
Center (2x) ________  __  ________  __  _____
 72
   65
 73
    4
 40
101.6
 49
63.5
 74
    0
 49
-12.7
 74
    0
 49
12.7
 74
    0
 49
-12.7
 74
    0
  0
ENDTAB
  0
TABLE
  2
LAYER
  5
2
330
0
100
AcDbSymbolTable
 70
    1
  0
LAYER
  5
10
330
2
100
AcDbSymbolTableRecord
100
AcDbLayerTableRecord
  2
0
 70
    0
 62
    7
  6
CONTINUOUS
370
    0
390
F
  0
ENDTAB
  0
TABLE
  2
STYLE
  5
3
330
0
100
AcDbSymbolTable
 70
    3
  0
STYLE
  5
4A
330
2
100
AcDbSymbolTableRecord
100
AcDbTextStyleTableRecord
  2
standard
 70
    0
 40
0
 41
1
 50
0
 71
    0
 42
1
  3
standard
  4

  0
ENDTAB
  0
TABLE
  2
VIEW
  5
6
330
0
100
AcDbSymbolTable
 70
    0
  0
ENDTAB
  0
TABLE
  2
UCS
  5
7
330
0
100
AcDbSymbolTable
 70
    0
  0
ENDTAB
  0
TABLE
  2
APPID
  5
9
330
0
100
AcDbSymbolTable
 70
    1
  0
APPID
  5
12
330
9
100
AcDbSymbolTableRecord
100
AcDbRegAppTableRecord
  2
ACAD
 70
    0
  0
APPID
  5
4B
330
9
100
AcDbSymbolTableRecord
100
AcDbRegAppTableRecord
  2
LibreCad
 70
    0
  0
ENDTAB
  0
TABLE
  2
DIMSTYLE
  5
A
330
0
100
AcDbSymbolTable
 70
    1
100
AcDbDimStyleTable
 71
    1
  0
DIMSTYLE
105
4C
330
A
100
AcDbSymbolTableRecord
100
AcDbDimStyleTableRecord
  2
Standard
 70
    0
 40
2.5
 41
0.25
 42
0.0625
 43
0.38
 44
0.125
 45
0
 46
0
 47
0
 48
0
 49
1
140
0.25
141
0.09
142
0
143
25.4
144
1
145
0
146
1
147
0.0625
148
0
 71
    0
 72
    0
 73
    0
 74
    1
 75
    0
 76
    0
 77
    0
 78
    8
 79
    0
170
    0
171
    2
172
    0
173
    0
174
    0
175
    0
176
    0
177
    0
178
    0
179
    0
271
    2
272
    4
273
    2
274
    2
275
    0
276
    0
277
    2
278
   44
279
    0
280
    0
281
    0
282
    0
283
    1
284
    0
285
    0
286
    0
288
    0
289
    3
340
STANDARD
341

371
   -2
372
   -2
  0
ENDTAB
  0
TABLE
  2
BLOCK_RECORD
  5
1
330
0
100
AcDbSymbolTable
 70
    2
  0
BLOCK_RECORD
  5
1F
330
1
100
AcDbSymbolTableRecord
100
AcDbBlockTableRecord
  2
*Model_Space
 70
    0
280
    1
281
    0
  0
BLOCK_RECORD
  5
1E
330
1
100
AcDbSymbolTableRecord
100
AcDbBlockTableRecord
  2
*Paper_Space
 70
    0
280
    1
281
    0
  0
ENDTAB
  0
ENDSEC
  0
SECTION
  2
BLOCKS
  0
BLOCK
  5
20
330
1F
100
AcDbEntity
  8
0
100
AcDbBlockBegin
  2
*Model_Space
 70
    0
 10
0
 20
0
 30
0
  3
*Model_Space
  1

  0
ENDBLK
  5
21
330
1F
100
AcDbEntity
  8
0
100
AcDbBlockEnd
  0
BLOCK
  5
1C
330
1B
100
AcDbEntity
  8
0
100
AcDbBlockBegin
  2
*Paper_Space
 70
    0
 10
0
 20
0
 30
0
  3
*Paper_Space
  1

  0
ENDBLK
  5
1D
330
1F
100
AcDbEntity
  8
0
100
AcDbBlockEnd
  0
ENDSEC
  0
SECTION
  2
ENTITIES
  0
LWPOLYLINE
  5
4D
100
AcDbEntity
  8
0
  6
ByLayer
 62
  256
370
  211
100
AcDbPolyline
 90
    2
 70
    0
 43
0
 10
200
 20
500
 10
0
 20
570
  0
LWPOLYLINE
  5
4E
100
AcDbEntity
  8
0
  6
ByLayer
 62
  256
370
  211
100
AcDbPolyline
 90
    2
 70
    0
 43
0
 10
200
 20
500
 10
400
 20
570
  0
ARC
  5
4F
100
AcDbEntity
  8
0
  6
ByLayer
 62
  256
370
  211
100
AcDbCircle
 10
200
 20
-81.66666666666663
 40
681.6666666666667
100
AcDbArc
 50
72.93846878010373
 51
107.0615312198963
  0
ARC
  5
50
100
AcDbEntity
  8
0
  6
ByLayer
 62
  256
370
  211
100
AcDbCircle
 10
200
 20
443.1818181818182
 40
236.8181818181818
100
AcDbArc
 50
32.37841251405388
 51
147.6215874859461
  0
LWPOLYLINE
  5
51
100
AcDbEntity
  8
0
  6
ByLayer
 62
  256
370
  211
100
AcDbPolyline
 90
    2
 70
    0
 43
0
 10
200
 20
170
 10
200
 20
500
  0
CIRCLE
  5
52
100
AcDbEntity
  8
0
  6
ByLayer
 62
  256
370
   -3
100
AcDbCircle
 10
200.1030524
 20
165.2019
 40
3.399662248980888
  0
CIRCLE
  5
53
100
AcDbEntity
  8
0
  6
ByLayer
 62
  256
370
   -3
100
AcDbCircle
 10
200.1029
 20
165.2019
 40
0.4111836815828174
  0
SPLINE
  5
54
100
AcDbEntity
  8
0
  6
ByLayer
 62
  256
370
   -3
100
AcDbSpline
210
0
220
0
230
0
 70
    8
 71
    2
 72
    7
 73
    4
 74
    0
 42
1e-007
 43
1e-007
 40
0
 40
0
 40
0
 40
0.5
 40
1
 40
1
 40
1
 10
200.12
 20
165.6300000000001
 30
0
 10
199.4205171381911
 20
166.3898233548762
 30
0
 10
200.2942614391018
 20
169.4404802755877
 30
0
 10
200.12
 20
165.6300000000001
 30
0
  0
SPLINE
  5
55
100
AcDbEntity
  8
0
  6
ByLayer
 62
  256
370
   -3
100
AcDbSpline
210
0
220
0
230
0
 70
    8
 71
    2
 72
    7
 73
    4
 74
    0
 42
1e-007
 43
1e-007
 40
0
 40
0
 40
0
 40
0.5
 40
1
 40
1
 40
1
 10
199.67
 20
165.27
 30
0
 10
198.9150870438657
 20
164.5652204364198
 30
0
 10
195.8583942149979
 20
165.4176086702709
 30
0
 10
199.67
 20
165.27
 30
0
  0
SPLINE
  5
56
100
AcDbEntity
  8
0
  6
ByLayer
 62
  256
370
   -3
100
AcDbSpline
210
0
220
0
230
0
 70
    8
 71
    2
 72
    7
 73
    4
 74
    0
 42
1e-007
 43
1e-007
 40
0
 40
0
 40
0
 40
0.5
 40
1
 40
1
 40
1
 10
200.06
 20
164.76
 30
0
 10
200.7647795635801
 20
164.0050870438656
 30
0
 10
199.9123913297292
 20
160.9483942149979
 30
0
 10
200.06
 20
164.76
 30
0
  0
SPLINE
  5
57
100
AcDbEntity
  8
0
  6
ByLayer
 62
  256
370
   -3
100
AcDbSpline
210
0
220
0
230
0
 70
    8
 71
    2
 72
    7
 73
    4
 74
    0
 42
1e-007
 43
1e-007
 40
0
 40
0
 40
0
 40
0.5
 40
1
 40
1
 40
1
 10
200.54
 20
165.21
 30
0
 10
201.2949129561343
 20
165.9147795635802
 30
0
 10
204.3516057850022
 20
165.0623913297292
 30
0
 10
200.54
 20
165.21
 30
0
  0
SPLINE
  5
58
100
AcDbEntity
  8
0
  6
ByLayer
 62
  256
370
   -3
100
AcDbSpline
210
0
220
0
230
0
 70
    8
 71
    2
 72
    7
 73
    4
 74
    0
 42
1e-007
 43
1e-007
 40
0
 40
0
 40
0
 40
0.5
 40
1
 40
1
 40
1
 10
200.4052865333786
 20
165.5385792888357
 30
0
 10
200.496710319647
 20
166.5672918317185
 30
0
 10
203.3413792359606
 20
167.9736330093201
 30
0
 10
200.4052865333786
 20
165.5385792888357
 30
0
  0
SPLINE
  5
59
100
AcDbEntity
  8
0
  6
ByLayer
 62
  256
370
   -3
100
AcDbSpline
210
0
220
0
230
0
 70
    8
 71
    2
 72
    7
 73
    4
 74
    0
 42
1e-007
 43
1e-007
 40
0
 40
0
 40
0
 40
0.5
 40
1
 40
1
 40
1
 10
199.7496050965595
 20
164.9394358894287
 30
0
 10
199.6914028776164
 20
163.9083101423493
 30
0
 10
196.8935653083547
 20
162.4109652631426
 30
0
 10
199.7496050965595
 20
164.9394358894287
 30
0
  0
SPLINE
  5
5A
100
AcDbEntity
  8
0
  6
ByLayer
 62
  256
370
   -3
100
AcDbSpline
210
0
220
0
230
0
 70
    8
 71
    2
 72
    7
 73
    4
 74
    0
 42
1e-007
 43
1e-007
 40
0
 40
0
 40
0
 40
0.5
 40
1
 40
1
 40
1
 10
199.8547422088459
 20
165.5654883031647
 30
0
 10
198.8311204231517
 20
165.7026241643831
 30
0
 10
197.5528309002277
 20
168.6070884259713
 30
0
 10
199.8547422088459
 20
165.5654883031647
 30
0
  0
SPLINE
  5
5B
100
AcDbEntity
  8
0
  6
ByLayer
 62
  256
370
   -3
100
AcDbSpline
210
0
220
0
230
0
 70
    8
 71
    2
 72
    7
 73
    4
 74
    0
 42
1e-007
 43
1e-007
 40
0
 40
0
 40
0
 40
0.5
 40
1
 40
1
 40
1
 10
200.4120989179335
 20
164.924263824844
 30
0
 10
201.4448583978555
 20
164.9203064000157
 30
0
 10
203.0871047965327
 20
162.2049862499613
 30
0
 10
200.4120989179335
 20
164.924263824844
 30
0
  0
LWPOLYLINE
  5
5C
100
AcDbEntity
  8
0
  6
ByLayer
 62
  256
370
   -3
100
AcDbPolyline
 90
    4
 70
    1
 43
0
 10
198
 20
200
 10
202
 20
200
 10
202
 20
170
 10
198
 20
170
  0
LWPOLYLINE
  5
5D
100
AcDbEntity
  8
0
  6
ByLayer
 62
  256
370
   -3
100
AcDbPolyline
 90
    4
 70
    1
 43
0
 10
198
 20
140
 10
202
 20
140
 10
202
 20
110
 10
198
 20
110
  0
LWPOLYLINE
  5
5E
100
AcDbEntity
  8
0
  6
ByLayer
 62
  256
370
   -1
100
AcDbPolyline
 90
    2
 70
    0
 43
0
 10
200
 20
203.2
 10
200
 20
200
  0
LWPOLYLINE
  5
5F
100
AcDbEntity
  8
0
  6
ByLayer
 62
  256
370
   -1
100
AcDbPolyline
 90
    3
 70
    0
 43
0
 10
198
 20
200
 10
200
 20
203.2
 10
202
 20
200
  0
LWPOLYLINE
  5
60
100
AcDbEntity
  8
0
  6
ByLayer
 62
  256
370
   -3
100
AcDbPolyline
 90
    4
 70
    1
 43
0
 10
195
 20
170
 10
205
 20
170
 10
207
 20
160
 10
193
 20
160
  0
LWPOLYLINE
  5
61
100
AcDbEntity
  8
0
  6
ByLayer
 62
  256
370
  211
100
AcDbPolyline
 90
    2
 70
    0
 43
0
 10
200
 20
-190
 10
200
 20
140
  0
CIRCLE
  5
62
100
AcDbEntity
  8
0
  6
ByLayer
 62
  256
370
   -1
100
AcDbCircle
 10
89.85499628122902
 20
100.88239104
 40
19.30033363877099
  0
CIRCLE
  5
63
100
AcDbEntity
  8
0
  6
ByLayer
 62
  256
370
   -3
100
AcDbCircle
 10
89.85499600384001
 20
100.88239104
 40
12.92415600572574
  0
CIRCLE
  5
64
100
AcDbEntity
  8
0
  6
ByLayer
 62
  256
370
   -3
100
AcDbCircle
 10
89.85441664000001
 20
100.88239104
 40
1.563155883905239
  0
SPLINE
  5
65
100
AcDbEntity
  8
0
  6
ByLayer
 62
  256
370
   -3
100
AcDbSpline
210
0
220
0
230
0
 70
    8
 71
    2
 72
    7
 73
    4
 74
    0
 42
1e-007
 43
1e-007
 40
0
 40
0
 40
0
 40
0.5
 40
1
 40
1
 40
1
 10
89.91942400000001
 20
102.509856
 30
0
 10
87.26026995254696
 20
105.3984004658971
 30
0
 10
90.58189628688937
 20
116.9957778156743
 30
0
 10
89.91942400000001
 20
102.509856
 30
0
  0
SPLINE
  5
66
100
AcDbEntity
  8
0
  6
ByLayer
 62
  256
370
   -3
100
AcDbSpline
210
0
220
0
230
0
 70
    8
 71
    2
 72
    7
 73
    4
 74
    0
 42
1e-007
 43
1e-007
 40
0
 40
0
 40
0
 40
0.5
 40
1
 40
1
 40
1
 10
88.20870400000003
 20
101.14128
 30
0
 10
85.33882690595976
 20
98.46199001109373
 30
0
 10
73.71850344773577
 20
101.7024291209015
 30
0
 10
88.20870400000003
 20
101.14128
 30
0
  0
SPLINE
  5
67
100
AcDbEntity
  8
0
  6
ByLayer
 62
  256
370
   -3
100
AcDbSpline
210
0
220
0
230
0
 70
    8
 71
    2
 72
    7
 73
    4
 74
    0
 42
1e-007
 43
1e-007
 40
0
 40
0
 40
0
 40
0.5
 40
1
 40
1
 40
1
 10
89.69132800000003
 20
99.20246400000002
 30
0
 10
92.3706179889063
 20
96.33258690595972
 30
0
 10
89.13017887909834
 20
84.71226344773584
 30
0
 10
89.69132800000003
 20
99.20246400000002
 30
0
  0
SPLINE
  5
68
100
AcDbEntity
  8
0
  6
ByLayer
 62
  256
370
   -3
100
AcDbSpline
210
0
220
0
230
0
 70
    8
 71
    2
 72
    7
 73
    4
 74
    0
 42
1e-007
 43
1e-007
 40
0
 40
0
 40
0
 40
0.5
 40
1
 40
1
 40
1
 10
91.51609600000006
 20
100.913184
 30
0
 10
94.38597309404032
 20
103.5924739889063
 30
0
 10
106.0062965522642
 20
100.3520348790984
 30
0
 10
91.51609600000006
 20
100.913184
 30
0
  0
SPLINE
  5
69
100
AcDbEntity
  8
0
  6
ByLayer
 62
  256
370
   -3
100
AcDbSpline
210
0
220
0
230
0
 70
    8
 71
    2
 72
    7
 73
    4
 74
    0
 42
1e-007
 43
1e-007
 40
0
 40
0
 40
0
 40
0.5
 40
1
 40
1
 40
1
 10
91.00396928529207
 20
102.1623110244378
 30
0
 10
91.35152595117002
 20
106.0730646274604
 30
0
 10
102.1658193034278
 20
111.4194112482319
 30
0
 10
91.00396928529207
 20
102.1623110244378
 30
0
  0
SPLINE
  5
6A
100
AcDbEntity
  8
0
  6
ByLayer
 62
  256
370
   -3
100
AcDbSpline
210
0
220
0
230
0
 70
    8
 71
    2
 72
    7
 73
    4
 74
    0
 42
1e-007
 43
1e-007
 40
0
 40
0
 40
0
 40
0.5
 40
1
 40
1
 40
1
 10
88.51133073508051
 20
99.88460747725202
 30
0
 10
88.29006917954653
 20
95.96467983715539
 30
0
 10
77.65380987624111
 20
90.27237354436255
 30
0
 10
88.51133073508051
 20
99.88460747725202
 30
0
  0
SPLINE
  5
6B
100
AcDbEntity
  8
0
  6
ByLayer
 62
  256
370
   -3
100
AcDbSpline
210
0
220
0
230
0
 70
    8
 71
    2
 72
    7
 73
    4
 74
    0
 42
1e-007
 43
1e-007
 40
0
 40
0
 40
0
 40
0.5
 40
1
 40
1
 40
1
 10
88.91101998114841
 20
102.2646083333107
 30
0
 10
85.0196194006537
 20
102.7859440233191
 30
0
 10
80.16007395030582
 20
113.8275553601722
 30
0
 10
88.91101998114841
 20
102.2646083333107
 30
0
  0
SPLINE
  5
6C
100
AcDbEntity
  8
0
  6
ByLayer
 62
  256
370
   -3
100
AcDbSpline
210
0
220
0
230
0
 70
    8
 71
    2
 72
    7
 73
    4
 74
    0
 42
1e-007
 43
1e-007
 40
0
 40
0
 40
0
 40
0.5
 40
1
 40
1
 40
1
 10
91.02986724641607
 20
99.82692935652707
 30
0
 10
94.95600568528698
 20
99.81188481029902
 30
0
 10
101.1991695944992
 20
89.48932372785291
 30
0
 10
91.02986724641607
 20
99.82692935652707
 30
0
  0
LWPOLYLINE
  5
6D
100
AcDbEntity
  8
0
  6
ByLayer
 62
  256
370
   -3
100
AcDbPolyline
 90
    2
 70
    0
 43
0
 10
65.05696
 20
109.12464
 10
71.89984
 20
109.12464
  0
CIRCLE
  5
6E
100
AcDbEntity
  8
0
  6
ByLayer
 62
  256
370
   -1
100
AcDbCircle
 10
34.55652371877097
 20
100.88239104
 40
19.30033363877099
  0
CIRCLE
  5
6F
100
AcDbEntity
  8
0
  6
ByLayer
 62
  256
370
   -3
100
AcDbCircle
 10
34.55652399615997
 20
100.88239104
 40
12.92415600572574
  0
CIRCLE
  5
70
100
AcDbEntity
  8
0
  6
ByLayer
 62
  256
370
   -3
100
AcDbCircle
 10
34.55710335999999
 20
100.88239104
 40
1.563155883905239
  0
SPLINE
  5
71
100
AcDbEntity
  8
0
  6
ByLayer
 62
  256
370
   -3
100
AcDbSpline
210
0
220
0
230
0
 70
    8
 71
    2
 72
    7
 73
    4
 74
    0
 42
1e-007
 43
1e-007
 40
0
 40
0
 40
0
 40
0.5
 40
1
 40
1
 40
1
 10
34.49209599999998
 20
102.509856
 30
0
 10
37.15125004745298
 20
105.3984004658971
 30
0
 10
33.82962371311064
 20
116.9957778156744
 30
0
 10
34.49209599999998
 20
102.509856
 30
0
  0
SPLINE
  5
72
100
AcDbEntity
  8
0
  6
ByLayer
 62
  256
370
   -3
100
AcDbSpline
210
0
220
0
230
0
 70
    8
 71
    2
 72
    7
 73
    4
 74
    0
 42
1e-007
 43
1e-007
 40
0
 40
0
 40
0
 40
0.5
 40
1
 40
1
 40
1
 10
36.20281599999998
 20
101.14128
 30
0
 10
39.07269309404025
 20
98.46199001109372
 30
0
 10
50.6930165522642
 20
101.7024291209016
 30
0
 10
36.20281599999998
 20
101.14128
 30
0
  0
SPLINE
  5
73
100
AcDbEntity
  8
0
  6
ByLayer
 62
  256
370
   -3
100
AcDbSpline
210
0
220
0
230
0
 70
    8
 71
    2
 72
    7
 73
    4
 74
    0
 42
1e-007
 43
1e-007
 40
0
 40
0
 40
0
 40
0.5
 40
1
 40
1
 40
1
 10
34.72019199999997
 20
99.20246400000002
 30
0
 10
32.04090201109369
 20
96.33258690595972
 30
0
 10
35.28134112090164
 20
84.71226344773585
 30
0
 10
34.72019199999997
 20
99.20246400000002
 30
0
  0
SPLINE
  5
74
100
AcDbEntity
  8
0
  6
ByLayer
 62
  256
370
   -3
100
AcDbSpline
210
0
220
0
230
0
 70
    8
 71
    2
 72
    7
 73
    4
 74
    0
 42
1e-007
 43
1e-007
 40
0
 40
0
 40
0
 40
0.5
 40
1
 40
1
 40
1
 10
32.89542399999994
 20
100.913184
 30
0
 10
30.02554690595967
 20
103.5924739889062
 30
0
 10
18.40522344773582
 20
100.3520348790984
 30
0
 10
32.89542399999994
 20
100.913184
 30
0
  0
SPLINE
  5
75
100
AcDbEntity
  8
0
  6
ByLayer
 62
  256
370
   -3
100
AcDbSpline
210
0
220
0
230
0
 70
    8
 71
    2
 72
    7
 73
    4
 74
    0
 42
1e-007
 43
1e-007
 40
0
 40
0
 40
0
 40
0.5
 40
1
 40
1
 40
1
 10
33.40755071470792
 20
102.1623110244378
 30
0
 10
33.05999404882998
 20
106.0730646274604
 30
0
 10
22.24570069657221
 20
111.4194112482319
 30
0
 10
33.40755071470792
 20
102.1623110244378
 30
0
  0
SPLINE
  5
76
100
AcDbEntity
  8
0
  6
ByLayer
 62
  256
370
   -3
100
AcDbSpline
210
0
220
0
230
0
 70
    8
 71
    2
 72
    7
 73
    4
 74
    0
 42
1e-007
 43
1e-007
 40
0
 40
0
 40
0
 40
0.5
 40
1
 40
1
 40
1
 10
35.9001892649195
 20
99.88460747725202
 30
0
 10
36.12145082045345
 20
95.96467983715542
 30
0
 10
46.75771012375888
 20
90.27237354436251
 30
0
 10
35.9001892649195
 20
99.88460747725202
 30
0
  0
SPLINE
  5
77
100
AcDbEntity
  8
0
  6
ByLayer
 62
  256
370
   -3
100
AcDbSpline
210
0
220
0
230
0
 70
    8
 71
    2
 72
    7
 73
    4
 74
    0
 42
1e-007
 43
1e-007
 40
0
 40
0
 40
0
 40
0.5
 40
1
 40
1
 40
1
 10
35.50050001885159
 20
102.2646083333107
 30
0
 10
39.39190059934629
 20
102.7859440233191
 30
0
 10
44.2514460496942
 20
113.8275553601722
 30
0
 10
35.50050001885159
 20
102.2646083333107
 30
0
  0
SPLINE
  5
78
100
AcDbEntity
  8
0
  6
ByLayer
 62
  256
370
   -3
100
AcDbSpline
210
0
220
0
230
0
 70
    8
 71
    2
 72
    7
 73
    4
 74
    0
 42
1e-007
 43
1e-007
 40
0
 40
0
 40
0
 40
0.5
 40
1
 40
1
 40
1
 10
33.38165275358391
 20
99.82692935652707
 30
0
 10
29.45551431471303
 20
99.81188481029898
 30
0
 10
23.21235040550082
 20
89.48932372785293
 30
0
 10
33.38165275358391
 20
99.82692935652707
 30
0
  0
LWPOLYLINE
  5
79
100
AcDbEntity
  8
0
  6
ByLayer
 62
  256
370
   -3
100
AcDbPolyline
 90
    2
 70
    0
 43
0
 10
59.35455999999999
 20
109.12464
 10
52.51167999999999
 20
109.12464
  0
CIRCLE
  5
7A
100
AcDbEntity
  8
0
  6
ByLayer
 62
  256
370
   -1
100
AcDbCircle
 10
62.51711104000001
 20
61.51700371877097
 40
19.30033363877099
  0
CIRCLE
  5
7B
100
AcDbEntity
  8
0
  6
ByLayer
 62
  256
370
   -3
100
AcDbCircle
 10
62.51711103999995
 20
61.51700399615999
 40
12.92415600572574
  0
CIRCLE
  5
7C
100
AcDbEntity
  8
0
  6
ByLayer
 62
  256
370
   -3
100
AcDbCircle
 10
62.51711103999995
 20
61.51758336
 40
1.563155883905239
  0
SPLINE
  5
7D
100
AcDbEntity
  8
0
  6
ByLayer
 62
  256
370
   -3
100
AcDbSpline
210
0
220
0
230
0
 70
    8
 71
    2
 72
    7
 73
    4
 74
    0
 42
1e-007
 43
1e-007
 40
0
 40
0
 40
0
 40
0.5
 40
1
 40
1
 40
1
 10
64.14457599999997
 20
61.45257599999999
 30
0
 10
67.03312046589714
 20
64.11173004745301
 30
0
 10
78.63049781567439
 20
60.79010371311063
 30
0
 10
64.14457599999997
 20
61.45257599999999
 30
0
  0
SPLINE
  5
7E
100
AcDbEntity
  8
0
  6
ByLayer
 62
  256
370
   -3
100
AcDbSpline
210
0
220
0
230
0
 70
    8
 71
    2
 72
    7
 73
    4
 74
    0
 42
1e-007
 43
1e-007
 40
0
 40
0
 40
0
 40
0.5
 40
1
 40
1
 40
1
 10
62.776
 20
63.16329599999997
 30
0
 10
60.09671001109366
 20
66.03317309404025
 30
0
 10
63.33714912090159
 20
77.65349655226423
 30
0
 10
62.776
 20
63.16329599999997
 30
0
  0
SPLINE
  5
7F
100
AcDbEntity
  8
0
  6
ByLayer
 62
  256
370
   -3
100
AcDbSpline
210
0
220
0
230
0
 70
    8
 71
    2
 72
    7
 73
    4
 74
    0
 42
1e-007
 43
1e-007
 40
0
 40
0
 40
0
 40
0.5
 40
1
 40
1
 40
1
 10
60.837184
 20
61.68067199999999
 30
0
 10
57.96730690595972
 20
59.00138201109371
 30
0
 10
46.3469834477358
 20
62.24182112090161
 30
0
 10
60.837184
 20
61.68067199999999
 30
0
  0
SPLINE
  5
80
100
AcDbEntity
  8
0
  6
ByLayer
 62
  256
370
   -3
100
AcDbSpline
210
0
220
0
230
0
 70
    8
 71
    2
 72
    7
 73
    4
 74
    0
 42
1e-007
 43
1e-007
 40
0
 40
0
 40
0
 40
0.5
 40
1
 40
1
 40
1
 10
62.54790399999994
 20
59.85590399999994
 30
0
 10
65.22719398890621
 20
56.9860269059597
 30
0
 10
61.9867548790985
 20
45.3657034477358
 30
0
 10
62.54790399999994
 20
59.85590399999994
 30
0
  0
SPLINE
  5
81
100
AcDbEntity
  8
0
  6
ByLayer
 62
  256
370
   -3
100
AcDbSpline
210
0
220
0
230
0
 70
    8
 71
    2
 72
    7
 73
    4
 74
    0
 42
1e-007
 43
1e-007
 40
0
 40
0
 40
0
 40
0.5
 40
1
 40
1
 40
1
 10
63.79703102443776
 20
60.36803071470791
 30
0
 10
67.70778462746034
 20
60.02047404882993
 30
0
 10
73.05413124823188
 20
49.20618069657222
 30
0
 10
63.79703102443776
 20
60.36803071470791
 30
0
  0
SPLINE
  5
82
100
AcDbEntity
  8
0
  6
ByLayer
 62
  256
370
   -3
100
AcDbSpline
210
0
220
0
230
0
 70
    8
 71
    2
 72
    7
 73
    4
 74
    0
 42
1e-007
 43
1e-007
 40
0
 40
0
 40
0
 40
0.5
 40
1
 40
1
 40
1
 10
61.51932747725198
 20
62.86066926491949
 30
0
 10
57.59939983715537
 20
63.08193082045345
 30
0
 10
51.90709354436258
 20
73.71819012375886
 30
0
 10
61.51932747725198
 20
62.86066926491949
 30
0
  0
SPLINE
  5
83
100
AcDbEntity
  8
0
  6
ByLayer
 62
  256
370
   -3
100
AcDbSpline
210
0
220
0
230
0
 70
    8
 71
    2
 72
    7
 73
    4
 74
    0
 42
1e-007
 43
1e-007
 40
0
 40
0
 40
0
 40
0.5
 40
1
 40
1
 40
1
 10
63.89932833331073
 20
62.46098001885159
 30
0
 10
64.42066402331906
 20
66.3523805993463
 30
0
 10
75.46227536017217
 20
71.21192604969418
 30
0
 10
63.89932833331073
 20
62.46098001885159
 30
0
  0
SPLINE
  5
84
100
AcDbEntity
  8
0
  6
ByLayer
 62
  256
370
   -3
100
AcDbSpline
210
0
220
0
230
0
 70
    8
 71
    2
 72
    7
 73
    4
 74
    0
 42
1e-007
 43
1e-007
 40
0
 40
0
 40
0
 40
0.5
 40
1
 40
1
 40
1
 10
61.46164935652708
 20
60.34213275358393
 30
0
 10
61.446604810299
 20
56.41599431471302
 30
0
 10
51.12404372785288
 20
50.17283040550084
 30
0
 10
61.46164935652708
 20
60.34213275358393
 30
0
  0
LWPOLYLINE
  5
85
100
AcDbEntity
  8
0
  6
ByLayer
 62
  256
370
   -3
100
AcDbPolyline
 90
    2
 70
    0
 43
0
 10
52.51167999999999
 20
86.31504
 10
52.51167999999999
 20
78.33167999999999
  0
LWPOLYLINE
  5
86
100
AcDbEntity
  8
0
  6
ByLayer
 62
  256
370
   -3
100
AcDbPolyline
 90
    2
 70
    0
 43
0
 10
52.51167999999999
 20
86.31504
 10
52.51167999999999
 20
90.87696000000001
  0
LWPOLYLINE
  5
87
100
AcDbEntity
  8
0
  6
ByLayer
 62
  256
370
   -3
100
AcDbPolyline
 90
    2
 70
    0
 43
0
 10
71.89984
 20
90.87696000000001
 10
71.89984
 20
86.31504
  0
LWPOLYLINE
  5
88
100
AcDbEntity
  8
0
  6
ByLayer
 62
  256
370
   -3
100
AcDbPolyline
 90
    2
 70
    0
 43
0
 10
71.89984
 20
86.31504
 10
71.89984
 20
78.33167999999999
  0
LWPOLYLINE
  5
89
100
AcDbEntity
  8
0
  6
ByLayer
 62
  256
370
   -3
100
AcDbPolyline
 90
    2
 70
    0
 43
0
 10
71.89984
 20
90.87696000000001
 10
73.04032000000001
 20
90.87696000000001
  0
LWPOLYLINE
  5
8A
100
AcDbEntity
  8
0
  6
ByLayer
 62
  256
370
   -3
100
AcDbPolyline
 90
    2
 70
    0
 43
0
 10
52.51167999999999
 20
90.87696000000001
 10
51.37119999999999
 20
90.87696000000001
  0
LWPOLYLINE
  5
8B
100
AcDbEntity
  8
0
  6
ByLayer
 62
  256
370
   -1
100
AcDbPolyline
 90
    4
 70
    1
 43
0
 10
59.35455999999999
 20
139.9176
 10
65.05696
 20
139.9176
 10
65.05696
 20
109.12464
 10
59.35455999999999
 20
109.12464
  0
CIRCLE
  5
8C
100
AcDbEntity
  8
0
  6
ByLayer
 62
  256
370
   -1
100
AcDbCircle
 10
364.854996281229
 20
100.88239104
 40
19.30033363877099
  0
CIRCLE
  5
8D
100
AcDbEntity
  8
0
  6
ByLayer
 62
  256
370
   -3
100
AcDbCircle
 10
364.85499600384
 20
100.88239104
 40
12.92415600572574
  0
CIRCLE
  5
8E
100
AcDbEntity
  8
0
  6
ByLayer
 62
  256
370
   -3
100
AcDbCircle
 10
364.85441664
 20
100.88239104
 40
1.563155883905239
  0
SPLINE
  5
8F
100
AcDbEntity
  8
0
  6
ByLayer
 62
  256
370
   -3
100
AcDbSpline
210
0
220
0
230
0
 70
    8
 71
    2
 72
    7
 73
    4
 74
    0
 42
1e-007
 43
1e-007
 40
0
 40
0
 40
0
 40
0.5
 40
1
 40
1
 40
1
 10
364.919424
 20
102.509856
 30
0
 10
362.260269952547
 20
105.3984004658971
 30
0
 10
365.5818962868893
 20
116.9957778156743
 30
0
 10
364.919424
 20
102.509856
 30
0
  0
SPLINE
  5
90
100
AcDbEntity
  8
0
  6
ByLayer
 62
  256
370
   -3
100
AcDbSpline
210
0
220
0
230
0
 70
    8
 71
    2
 72
    7
 73
    4
 74
    0
 42
1e-007
 43
1e-007
 40
0
 40
0
 40
0
 40
0.5
 40
1
 40
1
 40
1
 10
363.208704
 20
101.14128
 30
0
 10
360.3388269059597
 20
98.46199001109373
 30
0
 10
348.7185034477358
 20
101.7024291209015
 30
0
 10
363.208704
 20
101.14128
 30
0
  0
SPLINE
  5
91
100
AcDbEntity
  8
0
  6
ByLayer
 62
  256
370
   -3
100
AcDbSpline
210
0
220
0
230
0
 70
    8
 71
    2
 72
    7
 73
    4
 74
    0
 42
1e-007
 43
1e-007
 40
0
 40
0
 40
0
 40
0.5
 40
1
 40
1
 40
1
 10
364.691328
 20
99.20246400000002
 30
0
 10
367.3706179889062
 20
96.33258690595973
 30
0
 10
364.1301788790984
 20
84.71226344773584
 30
0
 10
364.691328
 20
99.20246400000002
 30
0
  0
SPLINE
  5
92
100
AcDbEntity
  8
0
  6
ByLayer
 62
  256
370
   -3
100
AcDbSpline
210
0
220
0
230
0
 70
    8
 71
    2
 72
    7
 73
    4
 74
    0
 42
1e-007
 43
1e-007
 40
0
 40
0
 40
0
 40
0.5
 40
1
 40
1
 40
1
 10
366.5160960000001
 20
100.913184
 30
0
 10
369.3859730940403
 20
103.5924739889062
 30
0
 10
381.0062965522642
 20
100.3520348790984
 30
0
 10
366.5160960000001
 20
100.913184
 30
0
  0
SPLINE
  5
93
100
AcDbEntity
  8
0
  6
ByLayer
 62
  256
370
   -3
100
AcDbSpline
210
0
220
0
230
0
 70
    8
 71
    2
 72
    7
 73
    4
 74
    0
 42
1e-007
 43
1e-007
 40
0
 40
0
 40
0
 40
0.5
 40
1
 40
1
 40
1
 10
366.0039692852921
 20
102.1623110244378
 30
0
 10
366.3515259511699
 20
106.0730646274604
 30
0
 10
377.1658193034278
 20
111.4194112482319
 30
0
 10
366.0039692852921
 20
102.1623110244378
 30
0
  0
SPLINE
  5
94
100
AcDbEntity
  8
0
  6
ByLayer
 62
  256
370
   -3
100
AcDbSpline
210
0
220
0
230
0
 70
    8
 71
    2
 72
    7
 73
    4
 74
    0
 42
1e-007
 43
1e-007
 40
0
 40
0
 40
0
 40
0.5
 40
1
 40
1
 40
1
 10
363.5113307350805
 20
99.88460747725202
 30
0
 10
363.2900691795466
 20
95.96467983715542
 30
0
 10
352.6538098762411
 20
90.27237354436254
 30
0
 10
363.5113307350805
 20
99.88460747725202
 30
0
  0
SPLINE
  5
95
100
AcDbEntity
  8
0
  6
ByLayer
 62
  256
370
   -3
100
AcDbSpline
210
0
220
0
230
0
 70
    8
 71
    2
 72
    7
 73
    4
 74
    0
 42
1e-007
 43
1e-007
 40
0
 40
0
 40
0
 40
0.5
 40
1
 40
1
 40
1
 10
363.9110199811484
 20
102.2646083333107
 30
0
 10
360.0196194006538
 20
102.7859440233191
 30
0
 10
355.1600739503058
 20
113.8275553601722
 30
0
 10
363.9110199811484
 20
102.2646083333107
 30
0
  0
SPLINE
  5
96
100
AcDbEntity
  8
0
  6
ByLayer
 62
  256
370
   -3
100
AcDbSpline
210
0
220
0
230
0
 70
    8
 71
    2
 72
    7
 73
    4
 74
    0
 42
1e-007
 43
1e-007
 40
0
 40
0
 40
0
 40
0.5
 40
1
 40
1
 40
1
 10
366.0298672464161
 20
99.82692935652707
 30
0
 10
369.9560056852869
 20
99.81188481029899
 30
0
 10
376.1991695944992
 20
89.48932372785293
 30
0
 10
366.0298672464161
 20
99.82692935652707
 30
0
  0
LWPOLYLINE
  5
97
100
AcDbEntity
  8
0
  6
ByLayer
 62
  256
370
   -3
100
AcDbPolyline
 90
    2
 70
    0
 43
0
 10
340.05696
 20
109.12464
 10
346.89984
 20
109.12464
  0
CIRCLE
  5
98
100
AcDbEntity
  8
0
  6
ByLayer
 62
  256
370
   -1
100
AcDbCircle
 10
309.556523718771
 20
100.88239104
 40
19.30033363877099
  0
CIRCLE
  5
99
100
AcDbEntity
  8
0
  6
ByLayer
 62
  256
370
   -3
100
AcDbCircle
 10
309.55652399616
 20
100.88239104
 40
12.92415600572574
  0
CIRCLE
  5
9A
100
AcDbEntity
  8
0
  6
ByLayer
 62
  256
370
   -3
100
AcDbCircle
 10
309.55710336
 20
100.88239104
 40
1.563155883905239
  0
SPLINE
  5
9B
100
AcDbEntity
  8
0
  6
ByLayer
 62
  256
370
   -3
100
AcDbSpline
210
0
220
0
230
0
 70
    8
 71
    2
 72
    7
 73
    4
 74
    0
 42
1e-007
 43
1e-007
 40
0
 40
0
 40
0
 40
0.5
 40
1
 40
1
 40
1
 10
309.4920959999999
 20
102.509856
 30
0
 10
312.1512500474529
 20
105.3984004658971
 30
0
 10
308.8296237131108
 20
116.9957778156743
 30
0
 10
309.4920959999999
 20
102.509856
 30
0
  0
SPLINE
  5
9C
100
AcDbEntity
  8
0
  6
ByLayer
 62
  256
370
   -3
100
AcDbSpline
210
0
220
0
230
0
 70
    8
 71
    2
 72
    7
 73
    4
 74
    0
 42
1e-007
 43
1e-007
 40
0
 40
0
 40
0
 40
0.5
 40
1
 40
1
 40
1
 10
311.202816
 20
101.14128
 30
0
 10
314.0726930940402
 20
98.46199001109372
 30
0
 10
325.6930165522642
 20
101.7024291209015
 30
0
 10
311.202816
 20
101.14128
 30
0
  0
SPLINE
  5
9D
100
AcDbEntity
  8
0
  6
ByLayer
 62
  256
370
   -3
100
AcDbSpline
210
0
220
0
230
0
 70
    8
 71
    2
 72
    7
 73
    4
 74
    0
 42
1e-007
 43
1e-007
 40
0
 40
0
 40
0
 40
0.5
 40
1
 40
1
 40
1
 10
309.720192
 20
99.20246400000002
 30
0
 10
307.0409020110936
 20
96.33258690595973
 30
0
 10
310.2813411209016
 20
84.71226344773584
 30
0
 10
309.720192
 20
99.20246400000002
 30
0
  0
SPLINE
  5
9E
100
AcDbEntity
  8
0
  6
ByLayer
 62
  256
370
   -3
100
AcDbSpline
210
0
220
0
230
0
 70
    8
 71
    2
 72
    7
 73
    4
 74
    0
 42
1e-007
 43
1e-007
 40
0
 40
0
 40
0
 40
0.5
 40
1
 40
1
 40
1
 10
307.8954239999999
 20
100.913184
 30
0
 10
305.0255469059596
 20
103.5924739889062
 30
0
 10
293.4052234477358
 20
100.3520348790984
 30
0
 10
307.8954239999999
 20
100.913184
 30
0
  0
SPLINE
  5
9F
100
AcDbEntity
  8
0
  6
ByLayer
 62
  256
370
   -3
100
AcDbSpline
210
0
220
0
230
0
 70
    8
 71
    2
 72
    7
 73
    4
 74
    0
 42
1e-007
 43
1e-007
 40
0
 40
0
 40
0
 40
0.5
 40
1
 40
1
 40
1
 10
308.4075507147079
 20
102.1623110244378
 30
0
 10
308.05999404883
 20
106.0730646274604
 30
0
 10
297.2457006965722
 20
111.4194112482319
 30
0
 10
308.4075507147079
 20
102.1623110244378
 30
0
  0
SPLINE
  5
A0
100
AcDbEntity
  8
0
  6
ByLayer
 62
  256
370
   -3
100
AcDbSpline
210
0
220
0
230
0
 70
    8
 71
    2
 72
    7
 73
    4
 74
    0
 42
1e-007
 43
1e-007
 40
0
 40
0
 40
0
 40
0.5
 40
1
 40
1
 40
1
 10
310.9001892649195
 20
99.88460747725202
 30
0
 10
311.1214508204534
 20
95.96467983715542
 30
0
 10
321.7577101237588
 20
90.27237354436254
 30
0
 10
310.9001892649195
 20
99.88460747725202
 30
0
  0
SPLINE
  5
A1
100
AcDbEntity
  8
0
  6
ByLayer
 62
  256
370
   -3
100
AcDbSpline
210
0
220
0
230
0
 70
    8
 71
    2
 72
    7
 73
    4
 74
    0
 42
1e-007
 43
1e-007
 40
0
 40
0
 40
0
 40
0.5
 40
1
 40
1
 40
1
 10
310.5005000188516
 20
102.2646083333107
 30
0
 10
314.3919005993463
 20
102.7859440233191
 30
0
 10
319.2514460496942
 20
113.8275553601722
 30
0
 10
310.5005000188516
 20
102.2646083333107
 30
0
  0
SPLINE
  5
A2
100
AcDbEntity
  8
0
  6
ByLayer
 62
  256
370
   -3
100
AcDbSpline
210
0
220
0
230
0
 70
    8
 71
    2
 72
    7
 73
    4
 74
    0
 42
1e-007
 43
1e-007
 40
0
 40
0
 40
0
 40
0.5
 40
1
 40
1
 40
1
 10
308.3816527535839
 20
99.82692935652707
 30
0
 10
304.455514314713
 20
99.81188481029899
 30
0
 10
298.2123504055008
 20
89.48932372785293
 30
0
 10
308.3816527535839
 20
99.82692935652707
 30
0
  0
LWPOLYLINE
  5
A3
100
AcDbEntity
  8
0
  6
ByLayer
 62
  256
370
   -3
100
AcDbPolyline
 90
    2
 70
    0
 43
0
 10
334.35456
 20
109.12464
 10
327.51168
 20
109.12464
  0
CIRCLE
  5
A4
100
AcDbEntity
  8
0
  6
ByLayer
 62
  256
370
   -1
100
AcDbCircle
 10
337.51711104
 20
61.51700371877097
 40
19.30033363877099
  0
CIRCLE
  5
A5
100
AcDbEntity
  8
0
  6
ByLayer
 62
  256
370
   -3
100
AcDbCircle
 10
337.51711104
 20
61.51700399615999
 40
12.92415600572574
  0
CIRCLE
  5
A6
100
AcDbEntity
  8
0
  6
ByLayer
 62
  256
370
   -3
100
AcDbCircle
 10
337.51711104
 20
61.51758336
 40
1.563155883905239
  0
SPLINE
  5
A7
100
AcDbEntity
  8
0
  6
ByLayer
 62
  256
370
   -3
100
AcDbSpline
210
0
220
0
230
0
 70
    8
 71
    2
 72
    7
 73
    4
 74
    0
 42
1e-007
 43
1e-007
 40
0
 40
0
 40
0
 40
0.5
 40
1
 40
1
 40
1
 10
339.144576
 20
61.45257599999999
 30
0
 10
342.0331204658971
 20
64.11173004745301
 30
0
 10
353.6304978156743
 20
60.79010371311063
 30
0
 10
339.144576
 20
61.45257599999999
 30
0
  0
SPLINE
  5
A8
100
AcDbEntity
  8
0
  6
ByLayer
 62
  256
370
   -3
100
AcDbSpline
210
0
220
0
230
0
 70
    8
 71
    2
 72
    7
 73
    4
 74
    0
 42
1e-007
 43
1e-007
 40
0
 40
0
 40
0
 40
0.5
 40
1
 40
1
 40
1
 10
337.776
 20
63.16329599999997
 30
0
 10
335.0967100110938
 20
66.03317309404027
 30
0
 10
338.3371491209016
 20
77.65349655226423
 30
0
 10
337.776
 20
63.16329599999997
 30
0
  0
SPLINE
  5
A9
100
AcDbEntity
  8
0
  6
ByLayer
 62
  256
370
   -3
100
AcDbSpline
210
0
220
0
230
0
 70
    8
 71
    2
 72
    7
 73
    4
 74
    0
 42
1e-007
 43
1e-007
 40
0
 40
0
 40
0
 40
0.5
 40
1
 40
1
 40
1
 10
335.837184
 20
61.68067199999999
 30
0
 10
332.9673069059597
 20
59.00138201109372
 30
0
 10
321.3469834477358
 20
62.24182112090161
 30
0
 10
335.837184
 20
61.68067199999999
 30
0
  0
SPLINE
  5
AA
100
AcDbEntity
  8
0
  6
ByLayer
 62
  256
370
   -3
100
AcDbSpline
210
0
220
0
230
0
 70
    8
 71
    2
 72
    7
 73
    4
 74
    0
 42
1e-007
 43
1e-007
 40
0
 40
0
 40
0
 40
0.5
 40
1
 40
1
 40
1
 10
337.547904
 20
59.85590399999994
 30
0
 10
340.2271939889062
 20
56.98602690595969
 30
0
 10
336.9867548790985
 20
45.36570344773581
 30
0
 10
337.547904
 20
59.85590399999994
 30
0
  0
SPLINE
  5
AB
100
AcDbEntity
  8
0
  6
ByLayer
 62
  256
370
   -3
100
AcDbSpline
210
0
220
0
230
0
 70
    8
 71
    2
 72
    7
 73
    4
 74
    0
 42
1e-007
 43
1e-007
 40
0
 40
0
 40
0
 40
0.5
 40
1
 40
1
 40
1
 10
338.7970310244377
 20
60.36803071470791
 30
0
 10
342.7077846274603
 20
60.02047404882995
 30
0
 10
348.0541312482319
 20
49.20618069657221
 30
0
 10
338.7970310244377
 20
60.36803071470791
 30
0
  0
SPLINE
  5
AC
100
AcDbEntity
  8
0
  6
ByLayer
 62
  256
370
   -3
100
AcDbSpline
210
0
220
0
230
0
 70
    8
 71
    2
 72
    7
 73
    4
 74
    0
 42
1e-007
 43
1e-007
 40
0
 40
0
 40
0
 40
0.5
 40
1
 40
1
 40
1
 10
336.519327477252
 20
62.86066926491949
 30
0
 10
332.5993998371554
 20
63.08193082045345
 30
0
 10
326.9070935443626
 20
73.71819012375886
 30
0
 10
336.519327477252
 20
62.86066926491949
 30
0
  0
SPLINE
  5
AD
100
AcDbEntity
  8
0
  6
ByLayer
 62
  256
370
   -3
100
AcDbSpline
210
0
220
0
230
0
 70
    8
 71
    2
 72
    7
 73
    4
 74
    0
 42
1e-007
 43
1e-007
 40
0
 40
0
 40
0
 40
0.5
 40
1
 40
1
 40
1
 10
338.8993283333107
 20
62.46098001885159
 30
0
 10
339.420664023319
 20
66.35238059934628
 30
0
 10
350.4622753601722
 20
71.2119260496942
 30
0
 10
338.8993283333107
 20
62.46098001885159
 30
0
  0
SPLINE
  5
AE
100
AcDbEntity
  8
0
  6
ByLayer
 62
  256
370
   -3
100
AcDbSpline
210
0
220
0
230
0
 70
    8
 71
    2
 72
    7
 73
    4
 74
    0
 42
1e-007
 43
1e-007
 40
0
 40
0
 40
0
 40
0.5
 40
1
 40
1
 40
1
 10
336.4616493565271
 20
60.34213275358393
 30
0
 10
336.446604810299
 20
56.41599431471303
 30
0
 10
326.1240437278528
 20
50.17283040550084
 30
0
 10
336.4616493565271
 20
60.34213275358393
 30
0
  0
LWPOLYLINE
  5
AF
100
AcDbEntity
  8
0
  6
ByLayer
 62
  256
370
   -3
100
AcDbPolyline
 90
    2
 70
    0
 43
0
 10
327.51168
 20
86.31504
 10
327.51168
 20
78.33167999999999
  0
LWPOLYLINE
  5
B0
100
AcDbEntity
  8
0
  6
ByLayer
 62
  256
370
   -3
100
AcDbPolyline
 90
    2
 70
    0
 43
0
 10
327.51168
 20
86.31504
 10
327.51168
 20
90.87696000000001
  0
LWPOLYLINE
  5
B1
100
AcDbEntity
  8
0
  6
ByLayer
 62
  256
370
   -3
100
AcDbPolyline
 90
    2
 70
    0
 43
0
 10
346.89984
 20
90.87696000000001
 10
346.89984
 20
86.31504
  0
LWPOLYLINE
  5
B2
100
AcDbEntity
  8
0
  6
ByLayer
 62
  256
370
   -3
100
AcDbPolyline
 90
    2
 70
    0
 43
0
 10
346.89984
 20
86.31504
 10
346.89984
 20
78.33167999999999
  0
LWPOLYLINE
  5
B3
100
AcDbEntity
  8
0
  6
ByLayer
 62
  256
370
   -3
100
AcDbPolyline
 90
    2
 70
    0
 43
0
 10
346.89984
 20
90.87696000000001
 10
348.04032
 20
90.87696000000001
  0
LWPOLYLINE
  5
B4
100
AcDbEntity
  8
0
  6
ByLayer
 62
  256
370
   -3
100
AcDbPolyline
 90
    2
 70
    0
 43
0
 10
327.51168
 20
90.87696000000001
 10
326.3712
 20
90.87696000000001
  0
LWPOLYLINE
  5
B5
100
AcDbEntity
  8
0
  6
ByLayer
 62
  256
370
   -1
100
AcDbPolyline
 90
    4
 70
    1
 43
0
 10
334.35456
 20
139.9176
 10
340.05696
 20
139.9176
 10
340.05696
 20
109.12464
 10
334.35456
 20
109.12464
  0
LWPOLYLINE
  5
B6
100
AcDbEntity
  8
0
  6
ByLayer
 62
  256
370
   -1
100
AcDbPolyline
 90
    4
 70
    1
 43
0
 10
0
 20
160
 10
400
 20
160
 10
400
 20
140
 10
0
 20
140
  0
LINE
  5
B7
100
AcDbEntity
  8
0
  6
ByLayer
 62
  256
370
   -1
100
AcDbLine
 10
0
 20
150
 11
400
 21
150
  0
ARC
  5
B8
100
AcDbEntity
  8
0
  6
ByLayer
 62
  256
370
   -1
100
AcDbCircle
 10
10.00000000000001
 20
210
 40
70.71067811865476
100
AcDbArc
 50
224.9999999999999
 51
261.869897645844
  0
LWPOLYLINE
  5
B9
100
AcDbEntity
  8
0
  6
ByLayer
 62
  256
370
   -1
100
AcDbPolyline
 90
    2
 70
    0
 43
0
 10
-40
 20
160
 10
0
 20
160
  0
ARC
  5
BA
100
AcDbEntity
  8
0
  6
ByLayer
 62
  256
370
   -1
100
AcDbCircle
 10
390
 20
210
 40
70.71067811865476
100
AcDbArc
 50
278.130102354156
 51
315.0000000000001
  0
LWPOLYLINE
  5
BB
100
AcDbEntity
  8
0
  6
ByLayer
 62
  256
370
   -1
100
AcDbPolyline
 90
    2
 70
    0
 43
0
 10
440
 20
160
 10
400
 20
160
  0
LWPOLYLINE
  5
BC
100
AcDbEntity
  8
0
  6
ByLayer
 62
  256
370
   -1
100
AcDbPolyline
 90
    4
 70
    1
 43
0
 10
121
 20
196
 10
130
 20
196
 10
130
 20
160
 10
121
 20
160
  0
LWPOLYLINE
  5
BD
100
AcDbEntity
  8
0
  6
ByLayer
 62
  256
370
   -1
100
AcDbPolyline
 90
    4
 70
    1
 43
0
 10
53.5
 20
192.4
 10
116.5
 20
192.4
 10
116.5
 20
164.5
 10
53.5
 20
164.5
  0
LWPOLYLINE
  5
BE
100
AcDbEntity
  8
0
  6
ByLayer
 62
  256
370
   -1
100
AcDbPolyline
 90
    3
 70
    0
 43
0
 10
40
 20
196
 10
44.60000000000001
 20
200
 10
49
 20
196
  0
LWPOLYLINE
  5
BF
100
AcDbEntity
  8
0
  6
ByLayer
 62
  256
370
   -1
100
AcDbPolyline
 90
    2
 70
    0
 43
0
 10
44.60000000000001
 20
200
 10
44.60000000000001
 20
196
  0
LWPOLYLINE
  5
C0
100
AcDbEntity
  8
0
  6
ByLayer
 62
  256
370
   -1
100
AcDbPolyline
 90
    4
 70
    1
 43
0
 10
40
 20
160
 10
49
 20
160
 10
49
 20
196
 10
40
 20
196
  0
LWPOLYLINE
  5
C1
100
AcDbEntity
  8
0
  6
ByLayer
 62
  256
370
   -1
100
AcDbPolyline
 90
    3
 70
    0
 43
0
 10
121
 20
196
 10
125.6
 20
200
 10
130
 20
196
  0
LWPOLYLINE
  5
C2
100
AcDbEntity
  8
0
  6
ByLayer
 62
  256
370
   -1
100
AcDbPolyline
 90
    2
 70
    0
 43
0
 10
125.6
 20
200
 10
125.6
 20
196
  0
LWPOLYLINE
  5
C3
100
AcDbEntity
  8
0
  6
ByLayer
 62
  256
370
   -1
100
AcDbPolyline
 90
    4
 70
    1
 43
0
 10
49
 20
180
 10
53.5
 20
180
 10
53.50000000000001
 20
176
 10
49
 20
176
  0
LWPOLYLINE
  5
C4
100
AcDbEntity
  8
0
  6
ByLayer
 62
  256
370
   -1
100
AcDbPolyline
 90
    4
 70
    1
 43
0
 10
116.5000000000001
 20
180
 10
121.0000000000001
 20
180
 10
121.0000000000001
 20
176
 10
116.5000000000001
 20
176
  0
LWPOLYLINE
  5
C5
100
AcDbEntity
  8
0
  6
ByLayer
 62
  256
370
   -1
100
AcDbPolyline
 90
    4
 70
    1
 43
0
 10
38
 20
180
 10
40
 20
180
 10
40
 20
176
 10
38
 20
176
  0
LWPOLYLINE
  5
C6
100
AcDbEntity
  8
0
  6
ByLayer
 62
  256
370
   -3
100
AcDbPolyline
 90
    4
 70
    1
 43
0
 10
135
 20
195
 10
132
 20
195
 10
132
 20
162
 10
135
 20
162
  0
LWPOLYLINE
  5
C7
100
AcDbEntity
  8
0
  6
ByLayer
 62
  256
370
   -1
100
AcDbPolyline
 90
    4
 70
    1
 43
0
 10
132
 20
180
 10
130
 20
180
 10
130
 20
176
 10
132
 20
176
  0
LWPOLYLINE
  5
C8
100
AcDbEntity
  8
0
  6
ByLayer
 62
  256
370
   -3
100
AcDbPolyline
 90
    4
 70
    1
 43
0
 10
35
 20
195
 10
38
 20
195
 10
38
 20
162
 10
35
 20
162
  0
LWPOLYLINE
  5
C9
100
AcDbEntity
  8
0
  6
ByLayer
 62
  256
370
   -1
100
AcDbPolyline
 90
    4
 70
    1
 43
0
 10
270
 20
160
 10
279
 20
160
 10
279
 20
196
 10
270
 20
196
  0
LWPOLYLINE
  5
CA
100
AcDbEntity
  8
0
  6
ByLayer
 62
  256
370
   -1
100
AcDbPolyline
 90
    4
 70
    1
 43
0
 10
351
 20
196
 10
360
 20
196
 10
360
 20
160
 10
351
 20
160
  0
LWPOLYLINE
  5
CB
100
AcDbEntity
  8
0
  6
ByLayer
 62
  256
370
   -1
100
AcDbPolyline
 90
    4
 70
    1
 43
0
 10
283.5
 20
192.4
 10
346.5
 20
192.4
 10
346.5
 20
164.5
 10
283.5
 20
164.5
  0
LWPOLYLINE
  5
CC
100
AcDbEntity
  8
0
  6
ByLayer
 62
  256
370
   -1
100
AcDbPolyline
 90
    3
 70
    0
 43
0
 10
270
 20
196
 10
274.6
 20
200
 10
279
 20
196
  0
LWPOLYLINE
  5
CD
100
AcDbEntity
  8
0
  6
ByLayer
 62
  256
370
   -1
100
AcDbPolyline
 90
    2
 70
    0
 43
0
 10
274.6
 20
200
 10
274.6
 20
196
  0
LWPOLYLINE
  5
CE
100
AcDbEntity
  8
0
  6
ByLayer
 62
  256
370
   -1
100
AcDbPolyline
 90
    3
 70
    0
 43
0
 10
351
 20
196
 10
355.6
 20
200
 10
360
 20
196
  0
LWPOLYLINE
  5
CF
100
AcDbEntity
  8
0
  6
ByLayer
 62
  256
370
   -1
100
AcDbPolyline
 90
    2
 70
    0
 43
0
 10
355.6
 20
200
 10
355.6
 20
196
  0
LWPOLYLINE
  5
D0
100
AcDbEntity
  8
0
  6
ByLayer
 62
  256
370
   -1
100
AcDbPolyline
 90
    4
 70
    1
 43
0
 10
279.0000000000001
 20
180
 10
283.5000000000001
 20
180
 10
283.5000000000001
 20
176
 10
279.0000000000001
 20
176
  0
LWPOLYLINE
  5
D1
100
AcDbEntity
  8
0
  6
ByLayer
 62
  256
370
   -1
100
AcDbPolyline
 90
    4
 70
    1
 43
0
 10
346.5000000000001
 20
180
 10
351.0000000000001
 20
180
 10
351.0000000000001
 20
176
 10
346.5000000000001
 20
176
  0
LWPOLYLINE
  5
D2
100
AcDbEntity
  8
0
  6
ByLayer
 62
  256
370
   -3
100
AcDbPolyline
 90
    4
 70
    1
 43
0
 10
265
 20
195
 10
268
 20
195
 10
268
 20
162
 10
265
 20
162
  0
LWPOLYLINE
  5
D3
100
AcDbEntity
  8
0
  6
ByLayer
 62
  256
370
   -1
100
AcDbPolyline
 90
    4
 70
    1
 43
0
 10
268
 20
180
 10
270
 20
180
 10
270
 20
176
 10
268
 20
176
  0
LWPOLYLINE
  5
D4
100
AcDbEntity
  8
0
  6
ByLayer
 62
  256
370
   -3
100
AcDbPolyline
 90
    4
 70
    1
 43
0
 10
365
 20
195
 10
362
 20
195
 10
362
 20
162
 10
365
 20
162
  0
LWPOLYLINE
  5
D5
100
AcDbEntity
  8
0
  6
ByLayer
 62
  256
370
   -1
100
AcDbPolyline
 90
    4
 70
    1
 43
0
 10
362
 20
180
 10
360
 20
180
 10
360
 20
176
 10
362
 20
176
  0
LWPOLYLINE
  5
D6
100
AcDbEntity
  8
0
  6
ByLayer
 62
  256
370
  211
100
AcDbPolyline
 90
    2
 70
    0
 43
0
 10
-40
 20
320.5
 10
-70
 20
331
  0
LWPOLYLINE
  5
D7
100
AcDbEntity
  8
0
  6
ByLayer
 62
  256
370
  211
100
AcDbPolyline
 90
    2
 70
    0
 43
0
 10
-40
 20
320.5
 10
-10
 20
331
  0
ARC
  5
D8
100
AcDbEntity
  8
0
  6
ByLayer
 62
  256
370
  211
100
AcDbCircle
 10
-40
 20
233.25
 40
102.25
100
AcDbArc
 50
72.93846878010373
 51
107.0615312198963
  0
ARC
  5
D9
100
AcDbEntity
  8
0
  6
ByLayer
 62
  256
370
  211
100
AcDbCircle
 10
-40
 20
311.9772727272727
 40
35.52272727272727
100
AcDbArc
 50
32.37841251405388
 51
147.6215874859461
  0
CIRCLE
  5
DA
100
AcDbEntity
  8
0
  6
ByLayer
 62
  256
370
   -1
100
AcDbCircle
 10
-40
 20
280
 40
22.3606797749979
  0
LWPOLYLINE
  5
DB
100
AcDbEntity
  8
0
  6
ByLayer
 62
  256
370
  211
100
AcDbPolyline
 90
    2
 70
    0
 43
0
 10
440
 20
320.5
 10
410
 20
331
  0
LWPOLYLINE
  5
DC
100
AcDbEntity
  8
0
  6
ByLayer
 62
  256
370
  211
100
AcDbPolyline
 90
    2
 70
    0
 43
0
 10
440
 20
320.5
 10
470
 20
331
  0
ARC
  5
DD
100
AcDbEntity
  8
0
  6
ByLayer
 62
  256
370
  211
100
AcDbCircle
 10
440
 20
233.25
 40
102.25
100
AcDbArc
 50
72.93846878010373
 51
107.0615312198963
  0
ARC
  5
DE
100
AcDbEntity
  8
0
  6
ByLayer
 62
  256
370
  211
100
AcDbCircle
 10
440
 20
311.9772727272727
 40
35.52272727272727
100
AcDbArc
 50
32.37841251405388
 51
147.6215874859461
  0
CIRCLE
  5
DF
100
AcDbEntity
  8
0
  6
ByLayer
 62
  256
370
   -1
100
AcDbCircle
 10
440
 20
280
 40
22.3606797749979
  0
LWPOLYLINE
  5
E0
100
AcDbEntity
  8
0
  6
ByLayer
 62
  256
370
  211
100
AcDbPolyline
 90
    2
 70
    0
 43
0
 10
440
 20
160
 10
440
 20
320.5
  0
LINE
  5
E1
100
AcDbEntity
  8
0
  6
ByLayer
 62
  256
370
   -1
100
AcDbLine
 10
-62
 20
280
 11
-40
 21
280
  0
LINE
  5
E2
100
AcDbEntity
  8
0
  6
ByLayer
 62
  256
370
   -1
100
AcDbLine
 10
-40
 20
280
 11
-18
 21
280
  0
LINE
  5
E3
100
AcDbEntity
  8
0
  6
ByLayer
 62
  256
370
   -1
100
AcDbLine
 10
418
 20
280
 11
440
 21
280
  0
LINE
  5
E4
100
AcDbEntity
  8
0
  6
ByLayer
 62
  256
370
   -1
100
AcDbLine
 10
462
 20
280
 11
440
 21
280
  0
LWPOLYLINE
  5
E5
100
AcDbEntity
  8
0
  6
ByLayer
 62
  256
370
  211
100
AcDbPolyline
 90
    2
 70
    0
 43
0
 10
-40
 20
160
 10
-40
 20
320.5
  0
LWPOLYLINE
  5
E6
100
AcDbEntity
  8
0
  6
ByLayer
 62
  256
370
   -3
100
AcDbPolyline
 90
    4
 70
    0
 43
0
 10
318
 20
60
 10
307
 20
60
 10
318
 20
61
 10
318
 20
61
  0
LWPOLYLINE
  5
E7
100
AcDbEntity
  8
0
  6
ByLayer
 62
  256
370
   -3
100
AcDbPolyline
 90
    4
 70
    0
 43
0
 10
357
 20
60
 10
368
 20
60
 10
357
 20
61
 10
357
 20
61
  0
LWPOLYLINE
  5
E8
100
AcDbEntity
  8
0
  6
ByLayer
 62
  256
370
   -3
100
AcDbPolyline
 90
    4
 70
    0
 43
0
 10
82
 20
60
 10
93
 20
60
 10
82
 20
61
 10
82
 20
61
  0
LWPOLYLINE
  5
E9
100
AcDbEntity
  8
0
  6
ByLayer
 62
  256
370
   -3
100
AcDbPolyline
 90
    4
 70
    0
 43
0
 10
43
 20
60
 10
32
 20
60
 10
43
 20
61
 10
43
 20
61
  0
LWPOLYLINE
  5
EA
100
AcDbEntity
  8
0
  6
ByLayer
 62
  256
370
   -3
100
AcDbPolyline
 90
    4
 70
    0
 43
0
 10
202
 20
110
 10
240
 20
110
 10
215
 20
111
 10
202
 20
111
  0
LWPOLYLINE
  5
EB
100
AcDbEntity
  8
0
  6
ByLayer
 62
  256
370
   -3
100
AcDbPolyline
 90
    4
 70
    0
 43
0
 10
198
 20
110
 10
160
 20
110
 10
185
 20
111
 10
198
 20
111
  0
MTEXT
  5
EC
100
AcDbEntity
  8
0
  6
ByLayer
 62
    3
370
   -1
100
AcDbMText
 10
542.5000030857234
 20
286
 30
0
 40
12
 41
129.0000061714482
 71
    5
 72
    1
  1
Direction chutes
  7
standard
210
0
220
0
230
1
 50
0
 73
    2
 44
1
  0
MTEXT
  5
ED
100
AcDbEntity
  8
0
  6
ByLayer
 62
    3
370
   -1
100
AcDbMText
 10
317.3333333333325
 20
216
 30
0
 40
12
 41
175.3333456762278
 71
    5
 72
    1
  1
Magnus effect lifters
  7
standard
210
0
220
0
230
1
 50
0
 73
    2
 44
1
  0
MTEXT
  5
EE
100
AcDbEntity
  8
0
  6
ByLayer
 62
    3
370
   -1
100
AcDbMText
 10
437.1666666666664
 20
76
 30
0
 40
12
 41
95.66666666666833
 71
    5
 72
    1
  1
Turbine unit
  7
standard
210
0
220
0
230
1
 50
0
 73
    2
 44
1
  0
MTEXT
  5
EF
100
AcDbEntity
  8
0
  6
ByLayer
 62
    3
370
   -1
100
AcDbMText
 10
410
 20
625
 30
0
 40
11.25
 41
60.9375
 71
    5
 72
    1
  1
Lift kite
  7
standard
210
0
220
0
230
1
 50
0
 73
    2
 44
1
  0
MTEXT
  5
F0
100
AcDbEntity
  8
0
  6
ByLayer
 62
    3
370
   -1
100
AcDbMText
 10
307.3437500000003
 20
-34.375
 30
0
 40
11.25
 41
176.5625000000016
 71
    5
 72
    1
  1
Tether w/ power cable
  7
standard
210
0
220
0
230
1
 50
0
 73
    2
 44
1
  0
ENDSEC
  0
SECTION
  2
OBJECTS
  0
DICTIONARY
  5
C
330
0
100
AcDbDictionary
281
    1
  3
ACAD_GROUP
350
D
  0
DICTIONARY
  5
D
330
C
100
AcDbDictionary
281
    1
  0
ENDSEC
  0
EOF
